<svg xmlns="http://www.w3.org/2000/svg" width="1687" height="932" style="shape-rendering:geometricPrecision;text-rendering:geometricPrecision;image-rendering:optimizeQuality;fill-rule:evenodd;clip-rule:evenodd"><path fill="#001950" d="M-.5-.5h1687v932H-.5z" style="opacity:1"/><path fill="#a1a7c0" d="M184.5 160.5a5385 5385 0 0 0-2 207 10711 10711 0 0 1-1-207z" style="opacity:1"/><path fill="#f3f3f5" d="M184.5 160.5h438q.25 111.5-.5 223a447 447 0 0 1-10.5 57 711 711 0 0 1-8 25q-29.19 84.106-93 146.5-48.322 46.776-107.5 78.5-91.903-51.498-154-137-57.812-84.181-66.5-186a5385 5385 0 0 1 2-207" style="opacity:1"/><path fill="#001950" d="M199.5 181.5q195.249-1.5 391-1 6.202 1.477 13 1a52878 52878 0 0 1-1 191.5q2.21 1.064 2 3.5l-2 19q-1.083-.626-1.5-2-1.255 9.505-2-1-.54 2.882-2.5 5 2.103 2.013-1 2.5 2.686 5.146 4 11.5a280 280 0 0 1-5 23h-1q-1.887.775-3-2 1.356-1.063 1-3 .663-5.481 1-11a8285 8285 0 0 0-182-1v-233q-6.798-.477-13 1h-1q-2.515 7.224-3 15.5.705 17.203 1 35-4 1 0 2-1.192 13.403 0 30-4 1 0 2v8q-4 1 0 2v20q-4 1 0 2-1.381 9.308 0 19a66 66 0 0 1-4 10.5q1.047 2.044 0 3.5 2.064 3.814 3.5.5a61.5 61.5 0 0 1 1.5 17q-1.221 3.196-1.5 7l-1-2-3 3a7.3 7.3 0 0 0-2-3q-.075-6.94-2.5-13h-1q-.5-1.5-2-2a10937 10937 0 0 1-92-99q.25-9.513-.5-19-3.498-4.937-8.5-1.5-1.426 4.585-1 9.5h-13q.505-5.712-1.5-11-4.372-3.855-8 1a481 481 0 0 1-1.5 30 2294 2294 0 0 0-43 67q-2.558 1.553-5 0-1.236 3.371-3 .5l1-1a9.5 9.5 0 0 1-2.5-1.5q-1.942 2.011-1.5 4-1.962-39.037 0-72 4.946.257 1-2l2-3a11.1 11.1 0 0 1-2-3.5q1.245-2.197.5-4.5-1 4-2 0a985 985 0 0 1-.5-35q6-.5 0-1a163 163 0 0 0-.5-18q-.575-.834-1.5-1" style="opacity:1"/><path fill="#192a54" d="M590.5 180.5h15a9609 9609 0 0 1-1 196q.21-2.436-2-3.5.672-95.437 1-191.5-6.798.477-13-1" style="opacity:1"/><path fill="#1e2e57" d="M199.5 181.5q.925.166 1.5 1 .749 8.986.5 18 6 .5 0 1a985 985 0 0 0 .5 35q1 4 2 0 .745 2.303-.5 4.5a11.1 11.1 0 0 0 2 3.5l-2 3q3.946 2.257-1 2-1.962 32.963 0 72-.442-1.989 1.5-4a9.5 9.5 0 0 0 2.5 1.5l-1 1q1.764 2.871 3-.5 2.442 1.553 5 0-2.159 3.132-2 7-2.435.21-3.5-2-1.461 3.567-2-1l-1 2-3-3a156.4 156.4 0 0 0 0 25l1-2q3.893.738 8.5 0v11q-2.406-1.18-2-4-1.983.255-3.5-1-2.269 3.686-4 0a217 217 0 0 1-1.5 21 9267 9267 0 0 1-1-191" style="opacity:1"/><path fill="#172953" d="M396.5 185.5v176q-1.465-4.18-1-9a61.5 61.5 0 0 0-1.5-17q-1.436 3.314-3.5-.5 1.047-1.456 0-3.5a66 66 0 0 0 4-10.5q-1.381-9.692 0-19-4-1 0-2v-20q-4-1 0-2v-8q-4-1 0-2-1.192-16.597 0-30-4-1 0-2-.295-17.797-1-35 .485-8.276 3-15.5" style="opacity:1"/><path fill="#5f718f" d="M397.5 185.5q6.202-1.477 13-1v233q91.253-.498 182 1h-183v-233z" style="opacity:1"/><path fill="#f4f4f5" d="M1044.5 392.5h-68v-5a34.55 34.55 0 0 0 13-3.5q2.631-3.489 3-8a279 279 0 0 0-14-39.5 436 436 0 0 0-59 0q-5.259 13.515-10.5 27-5.73 10.885 1.5 20.5 6.069 3.26 13 2.5v6h-52v-6q7.745-.093 14-4.5a67.2 67.2 0 0 0 10.5-16.5 3346 3346 0 0 0 53-136 19 19 0 0 0 1.5-8 189 189 0 0 1 12-2c20.09 49.41 39.92 99.077 59.5 149 3.2 10.868 10.36 17.035 21.5 18.5.91 1.699 1.24 3.533 1 5.5" style="opacity:1"/><path fill="#f7f7f7" d="M774.5 239.5q-1.152 1.144-1.5 3l-.5 63a1157 1157 0 0 0 1.5 67q2.75 6.75 9.5 9.5 18.76 1.24 37-.5 15.35-2.561 23.5-16 4.38-6.584 6.5-14h5v5a830 830 0 0 0-5 25q-2.12 4.078-2 9v2h-124v-5q4.994.427 9-2h1q8.384-3.74 9.5-13 1.247-64.753-.5-129-2.758-15.65-19-15v-6h68v6q-6.993.122-13 3.5-4.05 2.786-5 7.5" style="opacity:1"/><path fill="#f0f0f2" d="M532.5 272.5a75.6 75.6 0 0 0-9 8q-29.672 22.089-65 34-3.18-1.355-1-4 48.564-23.061 81-66a41.4 41.4 0 0 0-9-8.5 337 337 0 0 1 34-13.5q-.392 19.63-5 39l-8-7a230 230 0 0 1-18 18" style="opacity:1"/><path fill="#f4f4f5" d="M1206.5 226.5h3c-.33 11.845.01 23.512 1 35v8h-6c-5.42-22.918-19.75-36.418-43-40.5q-52.89-4.627-67.5 46.5c-4.41 19.574-4.58 39.24-.5 59 .36 4.415 1.69 8.415 4 12q23.115 50.99 78 37.5c3.77-1.302 6.94-3.469 9.5-6.5q1.005-21.5 0-43c-1.4-3.402-3.57-6.236-6.5-8.5q-7.425-1.74-15-2.5v-5h66v5c-8-.411-13.16 3.255-15.5 11q-.255 25.015-1.5 50c-27.9 10.541-56.56 13.875-86 10-2.34-1.54-5-2.206-8-2q-52.59-15.077-60-69c-.03-10.681.3-21.348 1-32-.28-1.915.05-3.581 1-5 1.42-2.015 2.09-4.348 2-7q18.93-50.155 72-59.5a342 342 0 0 1 37 0c11.64 2.328 23.31 4.494 35 6.5" style="opacity:1"/><path fill="#162754" d="M774.5 239.5q4.96 4.316 3.5 10a8.9 8.9 0 0 1-3-4l-.5 16a7042 7042 0 0 0 1 64.5l-2 17q1.389 14.95 2.5 28.5.908 2.972 3 1 1.28 2.437 3 1 4.5.5 5 5l1-2 2 4 1-2q3.72 2.499 8.5 2.5 10.488.75 21 .5-18.24 1.74-37 .5-6.75-2.75-9.5-9.5a1157 1157 0 0 1-1.5-67l.5-63q.348-1.856 1.5-3" style="opacity:1"/><path fill="#f4f4f5" d="M1334.5 219.5c24.24-3.024 46.91 1.476 68 13.5 20.69 14.525 32.85 34.358 36.5 59.5 3.71 27.858-2.96 52.858-20 75-15.99 17.412-35.83 26.912-59.5 28.5-37.33 4.743-67.17-7.757-89.5-37.5-17-32.795-16.66-65.462 1-98 15.36-22.914 36.52-36.581 63.5-41" style="opacity:1"/><path fill="#011950" d="M1373.5 382.5a573 573 0 0 1-21 3q-4.98-.277-9-1-1.155 1.668-3 2c-13.67-2.763-24.83-9.763-33.5-21a90 90 0 0 1-11-19 133 133 0 0 0-5-19 149.6 149.6 0 0 1-.5-38q.93.166 1.5 1c.33-1.333.67-2.667 1-4 .67 2.667 1.33 2.667 2 0 .33 1 .67 2 1 3q1.395-3.064 1.5-5.5a11.4 11.4 0 0 1-1.5-3.5c-.33.667-.67 1.333-1 2 .39-11.234 3.73-21.568 10-31h4q.765-2.244-1.5-3.5c1.69-1.728 2.86-1.228 3.5 1.5.5-1.167 1.33-2 2.5-2.5a7.3 7.3 0 0 0-3-2 38.7 38.7 0 0 0 5-5.5c6.16-5.68 13.5-9.18 22-10.5 31.3-2.591 52.46 10.909 63.5 40.5 8.25 23.256 9.59 46.923 4 71-3.43 14.348-10.59 26.514-21.5 36.5a73 73 0 0 1-10 5.5" style="opacity:1"/><path fill="#182a54" d="M743.5 243.5a2778 2778 0 0 1 .5 129q-1.116 9.26-9.5 13a34 34 0 0 0 0-4.5l6-6a41 41 0 0 1 0-5.5 4.46 4.46 0 0 0-2-1.5l4-2-2-1q2.491-60.675 3-121.5" style="opacity:1"/><path fill="#c7c8d6" d="M1206.5 226.5c1.07-.934 2.4-1.268 4-1v36a308 308 0 0 1-1-35z" style="opacity:1"/><path fill="#f2f3f4" d="M1480.5 390.5c-2.01-1.424-4.35-2.09-7-2a52 52 0 0 1-7-1c-.67-14-1.33-28-2-42h6c3.42 17.523 13.08 30.19 29 38 .85 1.466 2.18 2.3 4 2.5 3.29.826 6.63 1.326 10 1.5q37.05.702 34.5-36c-2.04-7.568-6.2-13.734-12.5-18.5a337 337 0 0 0-37-21c-13.3-7.3-23.13-17.8-29.5-31.5q-8.01-44.749 34.5-59.5c19.28-3.427 37.95-1.594 56 5.5a9.1 9.1 0 0 1 5-1v39c-1.79.285-3.45-.048-5-1-6.3-25.814-22.64-37.314-49-34.5-19.05 9.232-23.89 23.398-14.5 42.5q5.865 6.875 13.5 11.5a490 490 0 0 1 46 26c8.68 7.006 14.52 15.839 17.5 26.5 3.31 35.035-12.52 55.202-47.5 60.5q-23.295 2.85-45-5.5" style="opacity:1"/><path fill="#45587b" d="M257.5 255.5q.483 8.787-1 17 .481-7.793-1-15 .5-1.5 2-2" style="opacity:1"/><path fill="#031b49" d="M326.5 305.5q-2.361-.656-3.5-3-2.538 1.793-6 2-1 1 0 2a32 32 0 0 1 4.5 5q-.186.91-1 1l-27-32q-3.991-5.776-3-13a8.4 8.4 0 0 1 .5-4 1757 1757 0 0 1 35.5 42" style="opacity:1"/><path fill="#0d214e" d="M1315.5 239.5a38.7 38.7 0 0 1-5 5.5 7.3 7.3 0 0 1 3 2c-1.17.5-2 1.333-2.5 2.5-.64-2.728-1.81-3.228-3.5-1.5q2.265 1.256 1.5 3.5h-4c-6.27 9.432-9.61 19.766-10 31 .33-.667.67-1.333 1-2q.465 1.9 1.5 3.5-.105 2.436-1.5 5.5c-.33-1-.67-2-1-3-.67 2.667-1.33 2.667-2 0-.33 1.333-.67 2.667-1 4q-.57-.834-1.5-1 2.22-23.937 16.5-43c2.44-2.947 5.27-5.28 8.5-7" style="opacity:1"/><path fill="#021a4f" d="M973.5 322.5a601 601 0 0 1-49 1 2367 2367 0 0 1 24.5-64 1247 1247 0 0 1 24.5 63" style="opacity:1"/><path fill="#112550" d="M532.5 272.5q-.636 7.97 6.5 7l2 2q2.626-1.01 5-1 4.408.942 8.5 2-9.285-.485-18 1v105q-1.213-2.688-1.5-6l-1-65q-.21 3.815-2 7-.101-3.82-2.5-6.5 4-1 0-2 2.399-1.599 3-4.5-1.711-1.388 0-2.5-4-1 0-2l-2-1q1.711-1.112 0-2.5 1.96-2.118 2.5-5l1 8q1-11.5 0-23a4.46 4.46 0 0 1-1.5 2q.29-1.783-1.5-4l-1 1a4.46 4.46 0 0 0-1.5-2q-3.01 1.02-5 0a75.6 75.6 0 0 1 9-8" style="opacity:1"/><path fill="#dadce3" d="M290.5 258.5a387200 387200 0 0 0 72 83l-2 3q.258-1.488-1-2a871 871 0 0 0-33-37 1757 1757 0 0 0-35.5-42 8.4 8.4 0 0 0-.5 4q-1.124-4.695 0-9" style="opacity:1"/><path fill="#425579" d="M256.5 297.5q.485-9.783-1-19 .424-1.184 1.5-2 1.232 10.768-.5 21" style="opacity:1"/><path fill="#929bb3" d="M1062.5 279.5c.09 2.652-.58 4.985-2 7-.09-2.652.58-4.985 2-7" style="opacity:1"/><path fill="#f8f8f8" d="M536.5 283.5h33v104h-33z" style="opacity:1"/><path fill="#7b8ba4" d="M536.5 283.5q8.715-1.485 18-1h16v106h-34v-1h33v-104z" style="opacity:1"/><path fill="#031b4a" d="M255.5 257.5q1.481 7.207 1 15l-2 4a1523 1523 0 0 0-27 45q-3.65-1.073-7-5-1.025.544-2 1a60748 60748 0 0 1 37-60" style="opacity:1"/><path fill="#d7d9e1" d="M256.5 252.5a5.73 5.73 0 0 0 1 3q-1.5.5-2 2a60748 60748 0 0 0-37 60 72 72 0 0 1-7 9q-.159-3.868 2-7a2294 2294 0 0 1 43-67" style="opacity:1"/><path fill="#dadce3" d="M290.5 243.5a10937 10937 0 0 0 92 99l-2 1q0-1-1-1a1508 1508 0 0 0-32.5-33 2410 2410 0 0 0-56-61 32.5 32.5 0 0 0-.5 8 96 96 0 0 0-3-10q.519-1.794 1.5 0 .348-1.856 1.5-3" style="opacity:1"/><path fill="#031b4e" d="M379.5 342.5q-7.207 1.481-15 1-.5-1.5-2-2a387200 387200 0 0 1-72-83v-2a32.5 32.5 0 0 1 .5-8 2410 2410 0 0 1 56 61 1508 1508 0 0 1 32.5 33" style="opacity:1"/><path fill="#4f6083" d="M292.5 302.5q-1.492 17.232-1 35-1.987-17.76 0-36 .91.186 1 1" style="opacity:1"/><path fill="#021a4e" d="M326.5 305.5a871 871 0 0 1 33 37q-6.705 1.479-14 1l-2-2a757 757 0 0 1-23-29q.814-.09 1-1a32 32 0 0 0-4.5-5q-1-1 0-2 3.462-.207 6-2 1.139 2.344 3.5 3" style="opacity:1"/><path fill="#041b4d" d="M255.5 278.5q1.485 9.217 1 19l-3 6a523 523 0 0 0-21 38q-1.15 1.008-2 2.5a85 85 0 0 1-13 .5 1600 1600 0 0 0 38-66" style="opacity:1"/><path fill="#b1b6c8" d="M1059.5 291.5a468 468 0 0 0-1 32c-.67-4.153-1-8.487-1-13-.18-6.572.49-12.905 2-19" style="opacity:1"/><path fill="#657793" d="M234.5 343.5h22a381 381 0 0 0-1-39q-.058-1.884 1.5-3 .75 21.494.5 43-11.778.488-23-1" style="opacity:1"/><path fill="#c3c7d4" d="M457.5 310.5q-2.18 2.645 1 4-9.597 3.648-20 4.5a225 225 0 0 1 19-8.5" style="opacity:1"/><path fill="#021a4e" d="M292.5 302.5q.5 1.5 2 2a28828 28828 0 0 0 28 38q-15.23 1.491-31 1v-6q-.492-17.768 1-35" style="opacity:1"/><path fill="#021a4f" d="M227.5 321.5q-6.018 11.04-12 22-2.243.733-4 2-4.607.738-8.5 0l-1 2a156.4 156.4 0 0 1 0-25l3 3 1-2q.539 4.567 2 1 1.065 2.21 3.5 2a72 72 0 0 0 7-9q.975-.456 2-1 3.35 3.927 7 5" style="opacity:1"/><path fill="#d8dae2" d="m293.5 280.5 27 32a757 757 0 0 0 23 29l-2 1h-1a2177 2177 0 0 1-49-61z" style="opacity:1"/><path fill="#f8f8f8" d="M488.5 316.5h32v71h-32z" style="opacity:1"/><path fill="#4a5d7f" d="M1163.5 318.5c22.16-.997 44.49-1.331 67-1 .29 2.235-.04 4.235-1 6v-5z" style="opacity:1"/><path fill="#041b4a" d="M291.5 281.5a2177 2177 0 0 0 49 61q-6.705 1.479-14 1-1 0-1-1a829 829 0 0 0-29-39q-1.855-4.117-5.5-7-1.224-7.776.5-15" style="opacity:1"/><path fill="#d7dae1" d="M254.5 276.5q-.257 1.488 1 2a1600 1600 0 0 1-38 66l-2-1q5.982-10.96 12-22a1523 1523 0 0 1 27-45" style="opacity:1"/><path fill="#011a4a" d="M255.5 304.5a381 381 0 0 1 1 39h-22v-1a990 990 0 0 0 20-37q1 0 1-1" style="opacity:1"/><path fill="#5d708d" d="M973.5 322.5q.814.09 1 1-25.243 1.99-50 0 24.763.495 49-1" style="opacity:1"/><path fill="#9ea5bd" d="M488.5 316.5q16.232-1.492 33-1v73q-16.768.492-33-1h32v-71z" style="opacity:1"/><path fill="#d9dce3" d="M253.5 303.5q-.257 1.488 1 2a990 990 0 0 1-20 37q-.513-1.258-2-1a523 523 0 0 1 21-38" style="opacity:1"/><path fill="#dadce3" d="M296.5 303.5a829 829 0 0 1 29 39h-3a28828 28828 0 0 1-28-38q1.488.258 2-1" style="opacity:1"/><path fill="#f4f4f5" d="M290.5 243.5q-1.152 1.144-1.5 3-.981-1.794-1.5 0a96 96 0 0 1 3 10v2q-1.124 4.305 0 9-.991 7.224 3 13l-2 1q-1.724 7.224-.5 15 3.645 2.883 5.5 7-.512 1.258-2 1-1.5-.5-2-2-.09-.814-1-1-1.987 18.24 0 36v6q7.734.999 16 1 8.566-.008 16-2h2q0 1 1 1 3.465.996 7.5 1 4.393-.037 7.5-2l2-1 2 2q7.207 1.481 15 1l2-3q1.5.5 2 2 8 2 16 0l2-1q1.5.5 2 2v12q-9.783-.485-19 1a19.2 19.2 0 0 0-1 6h-20q.401-2.398-1-4-.166-.926-1-1.5a552 552 0 0 0-47 0 6.98 6.98 0 0 0-3.5 2.5q-1.152 6.63.5 13a9.86 9.86 0 0 1-1 6 34.3 34.3 0 0 0-11-3v-19h-13v20a39 39 0 0 1-12 2 81.4 81.4 0 0 0 .5-18 14.7 14.7 0 0 0-3.5-3q-.166-.926-1-1.5a800 800 0 0 0-40-.5v-11q1.757-1.267 4-2l2 1a85 85 0 0 0 13-.5q.85-1.492 2-2.5 1.487-.258 2 1v1q11.222 1.488 23 1 .25-21.506-.5-43-1.558 1.116-1.5 3 0 1-1 1-1.257-.512-1-2l3-6q1.732-10.232.5-21-1.076.816-1.5 2-1.257-.512-1-2l2-4q1.483-8.213 1-17a5.73 5.73 0 0 1-1-3 481 481 0 0 0 1.5-30q3.628-4.855 8-1 2.005 5.288 1.5 11h13q-.426-4.915 1-9.5 5.002-3.437 8.5 1.5.75 9.487.5 19" style="opacity:1"/><path fill="#021a4e" d="M272.5 286.5a30 30 0 0 1 6 3.5 9.5 9.5 0 0 1 1.5 2.5q.75 25.995.5 52h-13q-.25-26.005.5-52 3.153-2.393 4.5-6" style="opacity:1"/><path fill="#122452" d="M267.5 282.5q3.202-.53 4 2.5-5.37 8.955-4-2.5" style="opacity:1"/><path fill="#041b50" d="M274.5 266.5a38.5 38.5 0 0 1 5.5 5 48.7 48.7 0 0 1-.5 17 50 50 0 0 0-11.5-9 16.24 16.24 0 0 1 0-8q1.466 1.911 2.5 0a803 803 0 0 1 4-5" style="opacity:1"/><path fill="#6e7b98" d="M273.5 266.5h1a803 803 0 0 0-4 5v-2a6.55 6.55 0 0 1 3-3" style="opacity:1"/><path fill="#0b204f" d="M273.5 266.5a6.55 6.55 0 0 0-3 3q-1.494.129-2.5-1a25.2 25.2 0 0 1 0-10q4.354 3.07 5.5 8" style="opacity:1"/><path fill="#061d4c" d="M279.5 245.5q1.734 11.233.5 23a148 148 0 0 0-9.5-11q4.536-6.027 9-12" style="opacity:1"/><path fill="#051b50" d="M267.5 236.5h13a9.86 9.86 0 0 1-1 6 103 103 0 0 1-11 13 91 91 0 0 1-1-19" style="opacity:1"/><path fill="#8f98b0" d="M1093.5 334.5c1.91 3.716 3.24 7.716 4 12-2.31-3.585-3.64-7.585-4-12" style="opacity:1"/><path fill="#a1a8c0" d="M473.5 341.5h-32v46h32q-16.232 1.492-33 1v-48q16.768-.492 33 1" style="opacity:1"/><path fill="#45577b" d="M322.5 342.5h1q-7.434 1.992-16 2-8.266-.001-16-1 15.77.491 31-1" style="opacity:1"/><path fill="#4c5e80" d="M340.5 342.5h1q-3.107 1.963-7.5 2-4.035-.004-7.5-1 7.295.479 14-1" style="opacity:1"/><path fill="#46587c" d="M359.5 342.5q1.258.512 1 2-7.793.481-15-1 7.295.479 14-1M379.5 342.5q1 0 1 1-8 2-16 0 7.793.481 15-1" style="opacity:1"/><path fill="#f8f8f8" d="M473.5 341.5v46h-32v-46z" style="opacity:1"/><path fill="#677794" d="M850.5 351.5q2.648-1.442 6-1 .442 3.352-1 6v-5z" style="opacity:1"/><path fill="#011950" d="M385.5 344.5q2.425 6.06 2.5 13a7.3 7.3 0 0 1 2 3l3-3 1 2q.279-3.804 1.5-7-.465 4.82 1 9v41q-1.481 7.207-1 15a8285 8285 0 0 0-182 1 184 184 0 0 1 3 13v1a124 124 0 0 0 8.5 3 522 522 0 0 1 13.5-2q157.311.579 316.5 0l21.5.5q1.578 1.678 3.5 1.5l1-2q4.198 2.198 6.5 6.5h4q-1.493 4.457-3 9 .105 1.148 1 1.5a198 198 0 0 0-5 15q-37.611 99.91-123 164.5a777 777 0 0 1-58.5 38.5q-84.153-48.639-141-128-51.417-76.353-61.5-168a217 217 0 0 0 1.5-21q1.731 3.686 4 0 1.517 1.255 3.5 1-.406 2.82 2 4a7070 7070 0 0 0 41 2q1.941 1.185 3.5 3a81.4 81.4 0 0 1-.5 18 39 39 0 0 0 12-2v-20h13v19q6.003 3.165 13 4 .452-3.839-1-7-1.652-6.37-.5-13a6.98 6.98 0 0 1 3.5-2.5 552 552 0 0 1 47 0q.834.574 1 1.5v5q10.78.487 21-1a19.2 19.2 0 0 1 1-6h20z" style="opacity:1"/><path fill="#a0a7bf" d="M211.5 356.5q20.006-.25 40 .5.834.574 1 1.5a7070 7070 0 0 1-41-2" style="opacity:1"/><path fill="#adb2c7" d="M384.5 344.5h1v13h-20q9.217-1.485 19-1z" style="opacity:1"/><path fill="#a0a6bf" d="M343.5 359.5q1.401 1.602 1 4h20q-10.22 1.487-21 1z" style="opacity:1"/><path fill="#9099b1" d="M128.5 363.5a27.2 27.2 0 0 1-3 5 10.78 10.78 0 0 1 2-6q.91.186 1 1" style="opacity:1"/><path fill="#f1f2f3" d="M674.5 363.5q2.914 2.842 4.5 7 9.09 26.55 3 54a2309 2309 0 0 0-14.5 34 793 793 0 0 0-9.5-38q-2.14-17.04 4-33a408 408 0 0 1 12.5-24" style="opacity:1"/><path fill="#f3f3f5" d="M128.5 363.5a137.4 137.4 0 0 1 14 28 169 169 0 0 1 2 15.5 120 120 0 0 0 0 19.5 74.3 74.3 0 0 1-5.5 20 74 74 0 0 1-1.5 12 56 56 0 0 0-3-7 302 302 0 0 1-10-21 57.2 57.2 0 0 1-5-19q.031-13.023 1-26a79 79 0 0 1 5-17 27.2 27.2 0 0 0 3-5" style="opacity:1"/><path fill="#828fa8" d="M292.5 373.5q1.452 3.161 1 7-6.997-.835-13-4a34.3 34.3 0 0 1 11 3 9.86 9.86 0 0 0 1-6" style="opacity:1"/><path fill="#23315b" d="M1513.5 387.5a52 52 0 0 1-10-1.5c-1.82-.2-3.15-1.034-4-2.5 3.75-1.011 7.58-1.011 11.5 0 1.08 1.236 1.92 2.569 2.5 4" style="opacity:1"/><path fill="#1b2b56" d="M1373.5 382.5c-4.91 2.558-10.24 4.058-16 4.5-5.85.818-11.52.652-17-.5q1.845-.332 3-2 4.02.723 9 1a573 573 0 0 0 21-3" style="opacity:1"/><path fill="#21315a" d="M238.5 388.5q-9.45-.827-18 3-.166-.926-1-1.5l7-3q-3.143-.834-.5-1.5 6.585.888 12.5 3" style="opacity:1"/><path fill="#8f99b0" d="M733.5 385.5q-4.006 2.427-9 2 4.16-1.736 9-2" style="opacity:1"/><path fill="#dadce3" d="M378.5 395.5a77 77 0 0 1-10-1q-7.63-2.994-16-1.5-4.592 3.052-10 3.5a41 41 0 0 1-9-.5 108.5 108.5 0 0 0-14-3.5 41 41 0 0 0-9 .5 57.5 57.5 0 0 1-15.5 4.5 237 237 0 0 0-20.5-5 143.5 143.5 0 0 1-20.5 5 234 234 0 0 1-20-5 563 563 0 0 1-13.5 2v-3q8.55-3.827 18-3a83 83 0 0 0 15 4q7.432-.135 14-3.5 7.5-1 15 0 12.455 8.885 25 0a64.2 64.2 0 0 1 16 0 68.2 68.2 0 0 0 13.5 4.5 291 291 0 0 0 22-6q7.128-.055 12.5 4.5 3.465.745 7 .5z" style="opacity:1"/><path fill="#7986a1" d="M850.5 381.5q.12 4.922-2 9-.12-4.922 2-9" style="opacity:1"/><path fill="#98a0b6" d="M1473.5 388.5c2.65-.09 4.99.576 7 2-2.65.09-4.99-.576-7-2" style="opacity:1"/><path fill="#8893ab" d="M319.5 392.5q7.088 1.277 14 3.5 4.473.747 9 .5-12.079 2.115-23-4" style="opacity:1"/><path fill="#1a2954" d="M602.5 395.5a50.6 50.6 0 0 1-3 16q-1.314-6.354-4-11.5 3.103-.487 1-2.5 1.96-2.118 2.5-5 .745 10.505 2 1 .417 1.374 1.5 2" style="opacity:1"/><path fill="#6a7d98" d="M976.5 387.5v5h68c-22.83.998-45.827 1.331-69 1q-.442-3.352 1-6" style="opacity:1"/><path fill="#27355d" d="M724.5 392.5h124q.045 1.496-1.5 2a142 142 0 0 0-9 2l-2-2q-51.183.41-107 1-3.039-.623-4.5-3" style="opacity:1"/><path fill="#949db5" d="M1118.5 392.5c3-.206 5.66.46 8 2-2.93-.065-5.59-.732-8-2" style="opacity:1"/><path fill="#75849e" d="M120.5 385.5a361 361 0 0 0-1 26q-.997-4.473-1-9.5-.127-8.601 2-16.5" style="opacity:1"/><path fill="#74839d" d="M368.5 394.5q4.96.826 10 1-5.188 2.047-10-1" style="opacity:1"/><path fill="#3e5176" d="M396.5 402.5v16h-183a8285 8285 0 0 1 182-1q-.481-7.793 1-15" style="opacity:1"/><path fill="#aab0c2" d="M142.5 391.5q6.449 17.231 2 35a120 120 0 0 1 0-19.5 169 169 0 0 0-2-15.5" style="opacity:1"/><path fill="#f7f7f7" d="M396.5 185.5h13v233h183a185 185 0 0 1-1 11 17629 17629 0 0 1-375 2 184 184 0 0 0-3-13h183v-233" style="opacity:1"/><path fill="#132550" d="M124.5 430.5a302 302 0 0 0 10 21q-3.791-3.015-5.5-8-3.599.708-6-3l-1 1q-4.67-4.507 1.5-7.5l-1-1q1.321-1.062 2-2.5" style="opacity:1"/><path fill="#7788a1" d="M591.5 429.5q.356 1.937-1 3h-374v-1q187.815.993 375-2" style="opacity:1"/><path fill="#001944" d="M216.5 432.5h374q1.113 2.775 3 2l-2 11q-1.556 2.145-2 5-.895-.352-1-1.5 1.507-4.543 3-9h-4q-2.302-4.302-6.5-6.5l-1 2q-1.922.178-3.5-1.5l-21.5-.5a43252 43252 0 0 1-316.5 0 522 522 0 0 0-13.5 2 124 124 0 0 1-8.5-3" style="opacity:1"/><path fill="#eaeaee" d="M1241.5 437.5c.17 3.682 0 7.348-.5 11q-.42-1.374-1.5-2c-1.1-1.603-2.43-3.103-4-4.5q-7.485-.749-15-.5v20q6.015.249 12-.5c1.75-1.936 3.42-3.77 5-5.5.61 5.771-.05 11.104-2 16q.165-3.604-3-5.5a72.4 72.4 0 0 0-12-.5c-.31 6.922.02 13.756 1 20.5q9.225 3.314 18-1c1.94-1.432 3.27-3.265 4-5.5q.93-.166 1.5-1c.49 1.634.66 3.301.5 5a51 51 0 0 1-1 7c-13.71.648-27.04-.019-40-2a12.47 12.47 0 0 0 5.5-3q1.005-21.5 0-43c-1.44-1.655-3.28-2.322-5.5-2v-3z" style="opacity:1"/><path fill="#021a49" d="M1238.5 455.5h-1c-1.58 1.73-3.25 3.564-5 5.5q-5.985.749-12 .5v-20q7.515-.249 15 .5c1.57 1.397 2.9 2.897 4 4.5v3h3c.7-3.063 1.37-6.23 2-9.5a3.6 3.6 0 0 1-1-1.5c3.12-.629 5.46.704 7 4l-3 2q-1.245 9.168-9 11" style="opacity:1"/><path fill="#031b46" d="M1258.5 437.5c-.13.876.2 1.543 1 2a37 37 0 0 1 4.5 2q1.005 22.5 0 45-1.665 2.305-4.5 2c-.9.709-1.24 1.709-1 3h8c-1.64.816-2.81 2.15-3.5 4-2-1.55-4.16-2.884-6.5-4-1.87 1.336-3.21.836-4-1.5 2.62-1.595 5.29-3.095 8-4.5-.69-1.977-.36-3.977 1-6 1.4 1.499 2.07 1.166 2-1-.17-3.186-.34-6.519-.5-10-.67.667-1.33 1.333-2 2-1.17-1.5-2.33-3-3.5-4.5q.555-3.702 4.5-6.5c.33.333.67.667 1 1q1.005-8 0-16a4.5 4.5 0 0 1-1.5 2c-2.31-1.141-4.14-2.808-5.5-5-.33.667-.67 1.333-1 2-.64-1.803-1.8-3.136-3.5-4q1.89.775 3-2c1.23.863 2.56.863 4 0" style="opacity:1"/><path fill="#c0c2d1" d="M1448.5 438.5q-18-.25-36 .5c.92.278 1.58.778 2 1.5h-3v-3c12.51-.329 24.84.005 37 1" style="opacity:1"/><path fill="#959db4" d="M593.5 434.5h1q-.026 6.051-3 11z" style="opacity:1"/><path fill="#eaebee" d="M953.5 439.5q-3.649-.34-5 3-1.485 9.217-1 19h28q.485-9.783-1-19-2.684-2.26-6-4a61 61 0 0 1 22 0q-3.37 1.117-5.5 4a882 882 0 0 0-.5 42q1.812 3.817 6 4-4.647 1.982-10.5 2-5.853-.018-10.5-2 2.82.406 4-2 1.487-10.22 1-21h-26q-.25 10.512.5 21 1.224 1.984 3.5 2 1.314-.197 2 1a61 61 0 0 1-22 0q3.408-.952 5-4a231.7 231.7 0 0 0 0-43q-1.703-2.57-5-2v-3q11.12-.942 21 2" style="opacity:1"/><path fill="#ebecee" d="M1175.5 490.5q-14.1.957-27-2 2.835.305 4.5-2 1.005-22.5 0-45c-1.7-.906-3.53-1.239-5.5-1v-3c10.34-.166 20.67 0 31 .5q16.245 6.725 6 21c-1.67 1-3.33 2-5 3 10 2.33 13.83 8.497 11.5 18.5-3.06 6.453-8.22 9.787-15.5 10" style="opacity:1"/><path fill="#a4aac1" d="M1241.5 437.5c.98 3.798 1.32 7.798 1 12h-3v-3q1.08.626 1.5 2c.5-3.652.67-7.318.5-11" style="opacity:1"/><path fill="#e8e9ec" d="M889.5 436.5q13.307-.624 26 3v13h-3a10.1 10.1 0 0 0-1.5-6q-8.504-8.568-20.5-5.5-12.837 6.924-13 21.5-1.124 18.025 15 25.5 15.539 2.23 23-11.5 4.27 13.728-10 14.5-24.743 5.938-37.5-15.5-6.52-29.287 21.5-39" style="opacity:1"/><path fill="#031b46" d="M953.5 439.5q-.837 1.935-3 2.5a23 23 0 0 1 5 2 6.98 6.98 0 0 0-2.5 3.5 6.55 6.55 0 0 1-3-3 16.24 16.24 0 0 0 0 8q2.918-1.788 6 0 2.487 2.66 3.5 6a44 44 0 0 1 3 2h-14v-18q1.351-3.34 5-3" style="opacity:1"/><path fill="#0f224d" d="M1177.5 445.5q-2.325.354-4.5 0-1.8-1.457-1.5-3c-1.04 2.491-1.87 2.491-2.5 0-1.32 2.528-2.48 2.528-3.5 0-1.16 3.959-1.33 7.959-.5 12l6 2a68.5 68.5 0 0 0 7.5-5q-3.135 11.33-15 10c-.17-6.675 0-13.342.5-20q8.07-2.392 13.5 4" style="opacity:1"/><path fill="#031b48" d="M1448.5 444.5c.71 1.878 1.87 3.545 3.5 5 1.28-1.072 1.62-2.405 1-4 1.55 1.414 2.22 3.08 2 5-.33-.333-.67-.667-1-1-1.09.793-2.25 1.46-3.5 2-2.36-.057-4.7-.057-7 0-1.7-.399-3.36-.899-5-1.5v-4c-.95-.617-1.78-.451-2.5.5-.17-.333-.33-.667-.5-1a6.85 6.85 0 0 1 3-1.5c-3.19-1.316-6.52-1.816-10-1.5-.16 2.357 0 4.69.5 7 2.32-1.996 4.49-1.496 6.5 1.5-1.3 2.545-1.13 5.045.5 7.5.33-.667.67-1.333 1-2l3 3c.42-1.256 1.25-1.923 2.5-2q-.66 2.42-3 3.5-5.985.749-12 .5v-20a98.4 98.4 0 0 1 14 .5 6.97 6.97 0 0 1 3.5 2.5c1.89 6.432 3.05 6.432 3.5 0" style="opacity:1"/><path fill="#041b52" d="M1177.5 445.5c.84 1.879 1.17 3.879 1 6a68.5 68.5 0 0 1-7.5 5l-6-2c-.83-4.041-.66-8.041.5-12 1.02 2.528 2.18 2.528 3.5 0 .63 2.491 1.46 2.491 2.5 0q-.3 1.543 1.5 3 2.175.354 4.5 0" style="opacity:1"/><path fill="#061d4a" d="M611.5 440.5q1.118 3.257.5 7 1.524-1.701 2 1 2.207-3.603 4.5.5-1.767 1.45-4 1.5-1.87 2.313 0 4.5-4 1 0 2l-4 3 1 1a4.93 4.93 0 0 1-3 .5 4.93 4.93 0 0 0-.5-3q-.812 4.672-4.5 7a711 711 0 0 0 8-25" style="opacity:1"/><path fill="#0f234d" d="M937.5 442.5a231.7 231.7 0 0 1 0 43q-.722-4.427-5-6.5 1.07-2.014-1-4a13.9 13.9 0 0 1 3-4q-6.326-7.4-.5-14.5 1.077 1.426 2.5.5-1.711-1.112 0-2.5-5.424-3.873.5-8a8.4 8.4 0 0 0 .5-4" style="opacity:1"/><path fill="#8e98af" d="M591.5 445.5q-1.763 10.797-7 20a198 198 0 0 1 5-15q.444-2.855 2-5" style="opacity:1"/><path fill="#e8e9ec" d="M1258.5 437.5c9.67-.166 19.34 0 29 .5q22.53 5.32 9 24a27 27 0 0 0-6 3.5 185.7 185.7 0 0 0 17 22.5q1.425.724 3 .5c-3.87 1.93-8.21 2.597-13 2a148.7 148.7 0 0 1-17-23c-2.11-.968-4.44-1.302-7-1-.32 5.858.01 11.525 1 17q.465 5.264 6 5-4.65 1.982-10.5 2-5.85-.018-10.5-2 2.835.305 4.5-2 1.005-22.5 0-45a37 37 0 0 0-4.5-2c-.8-.457-1.13-1.124-1-2" style="opacity:1"/><path fill="#071d50" d="M1275.5 440.5c12.54-.954 17.38 4.713 14.5 17-3.63 5.516-8.8 7.516-15.5 6-.3-7.753.03-15.42 1-23" style="opacity:1"/><path fill="#f1f2f3" d="M102.5 447.5q34.219 15.969 45.5 52a131.8 131.8 0 0 0 7.5 30l-1 1a24.9 24.9 0 0 0-5-6.5q-33.507-14.502-43.5-49.5-.547-7.315-3-14a85 85 0 0 1-.5-13" style="opacity:1"/><path fill="#ebecef" d="M1056.5 488.5c-2.93 1.32-6.26 1.986-10 2-3.74-.014-7.07-.68-10-2 2.07-.032 3.4-1.032 4-3a151 151 0 0 0-5-13h-19a62 62 0 0 1-4 11.5c.17.833.33 1.667.5 2.5q2.79 1.618 4.5 4c-5.77.613-11.1-.054-16-2 4.27-.941 6.94-3.607 8-8a732 732 0 0 0 17-43c1.79-.285 3.45.048 5 1a1600 1600 0 0 0 20.5 48q1.665 2.305 4.5 2" style="opacity:1"/><path fill="#061c4f" d="M1114.5 488.5c-.84.342-1.17 1.008-1 2-4.47-.279-9.14-.279-14 0 5.97-13.79 12.14-27.457 18.5-41 .9 12.328 1.23 24.662 1 37a9.2 9.2 0 0 1-4.5 2" style="opacity:1"/><path fill="#eaeaed" d="M1367.5 436.5c22.86-.639 33.7 10.361 32.5 33-2.39 11.388-9.22 18.555-20.5 21.5q-22.77 4.415-34.5-15.5-7.14-30.526 22.5-39" style="opacity:1"/><path fill="#031a4f" d="M1354.5 469.5c-.18-5.38.16-10.713 1-16q4.95-15.481 21-12.5c9.79 4.904 14.12 12.904 13 24q1.14 15.332-12 23c-13.39 1.117-21.06-5.05-23-18.5" style="opacity:1"/><path fill="#f3f3f4" d="M649.5 529.5a120 120 0 0 0 8-29q10.46-35.402 43-53 1.615 30.905-16.5 56-10.333 12.772-25.5 18.5-3.901 4.668-9 7.5" style="opacity:1"/><path fill="#eaebee" d="M1448.5 438.5v6c-.45 6.432-1.61 6.432-3.5 0a6.97 6.97 0 0 0-3.5-2.5 98.4 98.4 0 0 0-14-.5v20q6.015.249 12-.5 2.34-1.08 3-3.5c-.13-.876.2-1.543 1-2q1.995 8.5 0 17c-.54-2.666-1.87-4.833-4-6.5a72.4 72.4 0 0 0-12-.5c-.17 7.008 0 14.008.5 21a60 60 0 0 0 5.5 3 61 61 0 0 1-22 0 60 60 0 0 0 5.5-3q1.005-22 0-44c-.71-.881-1.54-1.547-2.5-2-.42-.722-1.08-1.222-2-1.5q18-.75 36-.5" style="opacity:1"/><path fill="#f3f3f4" d="M164.5 443.5q12.003 19.15 11 42.5l-.5 11.5a275 275 0 0 1-9 27 112 112 0 0 0 0 14 515 515 0 0 1-12-34q-4.293-16.888-1-34 5.733-13.471 11.5-27" style="opacity:1"/><path fill="#f0f1f3" d="M652.5 495.5a1134 1134 0 0 0-10 36 69 69 0 0 0-3.5 6q.492-7.463 0-15-15.613-27.797-8-59a262 262 0 0 0 7.5-20q16.824 23.291 14 52" style="opacity:1"/><path fill="#8391a9" d="M1355.5 453.5a84 84 0 0 0-1 16c-1.15-4.481-1.32-9.148-.5-14q.42-1.374 1.5-2" style="opacity:1"/><path fill="#46587b" d="M728.5 461.5a2602 2602 0 0 1 102-1q.426 2.872-1 5v-4z" style="opacity:1"/><path fill="#657493" d="M948.5 442.5v18h26v-18q1.485 9.217 1 19h-28q-.485-9.783 1-19" style="opacity:1"/><path fill="#081e4c" d="M1025.5 450.5c3.42 5.182 6.09 10.849 8 17a38.1 38.1 0 0 1-15 .5 111 111 0 0 0 7-17.5" style="opacity:1"/><path fill="#ecedef" d="M728.5 461.5h101v4h-101z" style="opacity:1"/><path fill="#485a7d" d="M1237.5 455.5h1v17q-1.935.356-3-1c1.95-4.896 2.61-10.229 2-16" style="opacity:1"/><path fill="#cbcbd8" d="M1476.5 461.5v3h95v-3c.93 1.068 1.27 2.401 1 4h-97c-.27-1.599.07-2.932 1-4" style="opacity:1"/><path fill="#f3f3f3" d="M1476.5 461.5h95v3h-95z" style="opacity:1"/><path fill="#011a46" d="M959.5 465.5q-2.316 2.12-5 1-1.64 2.052 1 3.5a24.3 24.3 0 0 1-3.5 3.5 3.94 3.94 0 0 1-2-1q-1.22 3.603.5 7a3.65 3.65 0 0 0 1.5-1l4.5 4.5q-2.84 1.619-1 4-1.855.348-3 1.5-2.276-.016-3.5-2-.75-10.488-.5-21z" style="opacity:1"/><path fill="#001944" d="M960.5 465.5h14q.487 10.78-1 21a25 25 0 0 0-.5-7 4.46 4.46 0 0 1-1.5 2q-7.816-4.153 0-8.5a17.8 17.8 0 0 1-4.5-5.5h-5q-1.075-.816-1.5-2" style="opacity:1"/><path fill="#081d50" d="M1163.5 464.5c8.01-1.739 13.85.928 17.5 8 1 11.328-4.16 16.161-15.5 14.5l-1.5-1.5a220 220 0 0 1-.5-21" style="opacity:1"/><path fill="#f3f4f5" d="M337.5 481.5a2769 2769 0 0 0-31 63q-14.475-5.238-27-13.5a5806 5806 0 0 1 32-64.5 409 409 0 0 0 24 12.5q1.321 1.063 2 2.5" style="opacity:1"/><path fill="#f4f4f5" d="M509.5 540.5a100 100 0 0 1-8.5 4 752 752 0 0 1-32.5-65 499 499 0 0 0 27-13 2932 2932 0 0 1 32 65z" style="opacity:1"/><path fill="#e9e9ed" d="M1091.5 454.5a276 276 0 0 0 9.5 20 142 142 0 0 0 9.5-19 104 104 0 0 0 7-18c5.37-.328 10.71.005 16 1q-6.285 2.017-6 8.5a643 643 0 0 1 2.5 38.5c1.94 1.754 3.77 3.421 5.5 5q-11.115.942-21-2a9.2 9.2 0 0 0 4.5-2c.23-12.338-.1-24.672-1-37a1476 1476 0 0 0-18.5 41c-1.32.17-2.49-.163-3.5-1q-7.29-19.706-16.5-38c.13-.876-.2-1.543-1-2a25.8 25.8 0 0 0-1 10q-1.65 13.506 0 27c2.09.989 3.75 2.322 5 4-5.77.613-11.1-.054-16-2 2.52-.348 4.35-1.681 5.5-4a621 621 0 0 0 2-42c-1.44-1.655-3.28-2.322-5.5-2v-3c5.34-.166 10.68.001 16 .5a72.2 72.2 0 0 0 7 16.5" style="opacity:1"/><path fill="#0b204c" d="M1091.5 454.5q3.285 1.985 4.5 6c.88-2.013 2.21-2.013 4 0a26 26 0 0 0 7-5c1.02 1.134 1.68.801 2-1q.57.834 1.5 1a142 142 0 0 1-9.5 19 276 276 0 0 1-9.5-20" style="opacity:1"/><path fill="#7787a1" d="M1079.5 451.5c-.67 2.667-1.33 5.333-2 8-.32-3.398.01-6.732 1-10 .8.457 1.13 1.124 1 2" style="opacity:1"/><path fill="#a3a9c0" d="M1280.5 467.5h-6v16c-.99-5.475-1.32-11.142-1-17 2.56-.302 4.89.032 7 1" style="opacity:1"/><path fill="#0a1e50" d="M1079.5 451.5q9.21 18.294 16.5 38c1.01.837 2.18 1.17 3.5 1q.06 1.884-1.5 3-4.71-.582-9 0a15 15 0 0 0-6.5-3c-1.25-1.678-2.91-3.011-5-4q-1.65-13.494 0-27c.67-2.667 1.33-5.333 2-8" style="opacity:1"/><path fill="#f5f5f6" d="M447.5 489.5q9.178 1.406 18 0a1802 1802 0 0 1 25 51q-12.372 6.876-21 18a4464 4464 0 0 1-12-9 717 717 0 0 1-45-42q-8.468-1.149-17 .5-7.476 12.501-21.5 15.5-8.999.486-9-8a277 277 0 0 0 18.5-25 473 473 0 0 1 26-13.5 25.2 25.2 0 0 1 10 0 175 175 0 0 0 28 12.5" style="opacity:1"/><path fill="#677694" d="M1245.5 483.5c.16-1.699-.01-3.366-.5-5q-.57.834-1.5 1 .48-2.322 3-2c.29 2.235-.04 4.235-1 6" style="opacity:1"/><path fill="#041c48" d="M1009.5 480.5c-1.06 4.393-3.73 7.059-8 8-.9.709-1.24 1.709-1 3q-1.083-.626-1.5-2-1 2-2 0-1.872 4.175-5.5 2 .356-1.937-1-3-4.188-.183-6-4 1.083-.626 1.5-2 1.461 3.567 2-1a49.3 49.3 0 0 1 8 5 16.7 16.7 0 0 0 4-4c2.08-.878 4.41-.878 7 0 .42-1.256 1.25-1.923 2.5-2" style="opacity:1"/><path fill="#061c4d" d="M468.5 479.5a752 752 0 0 0 32.5 65 100 100 0 0 0 8.5-4 14.7 14.7 0 0 1-4 6q-2.994-1.664-5.5 1-1.28-2.437-3-1a9.2 9.2 0 0 0-4.5-2 128 128 0 0 0-9.5 5 3.65 3.65 0 0 0-1.5-1 46.6 46.6 0 0 0-6 5.5q.686.621 1 1.5-1.12.355-2.5 1-.539 4.567-2 1-1.257 2.248-2.5 1 8.628-11.124 21-18a1802 1802 0 0 0-25-51q-8.822 1.406-18 0 2.426-2.208 6-2 3.968.425 7 1a26 26 0 0 1 5-3.5l-3-1q2.993-3.429 6-4.5" style="opacity:1"/><path fill="#f4f4f5" d="M378.5 487.5a744 744 0 0 1-20.5 27q.224 14.226 15 15 16.562-1.575 25.5-15.5a30.5 30.5 0 0 1 11 0 793 793 0 0 0 39 35.5 448 448 0 0 0 18.5 17q2.184 17.343-13.5 10.5a437 437 0 0 0-26.5-23.5q-2.599.351-2.5 3 .847 2.857 3 5a761 761 0 0 1 24.5 22q.735 3.067-.5 6-4.058 5.505-11 3.5a437 437 0 0 0-26.5-23.5q-3.518 1.512-3 5a255 255 0 0 0 20.5 17.5q8 5.5 0 11a16.24 16.24 0 0 1-8 0 578 578 0 0 1-22-18.5q-2.436 2.054-1.5 5a169 169 0 0 0 16 15q.868 2.142-.5 4-9.162 4.854-16-3 4.404-15.09-11-18 1.34-15.164-14-15-.494-7.48-7-11-1.218-2.24-4-2-1.839.03-3 1-2.975-.175-5 2-5.517-9.984-16-7-2.021.792-4 .5-8.122-9.914-19-15.5a1753 1753 0 0 1 24-51q1.388-1.593 3 0 4.864 1.62 10 .5a114 114 0 0 1 20.5-5.5l4.5.5q1.647 1.155 0 2.5" style="opacity:1"/><path fill="#495a7e" d="M969.5 488.5q4.647 1.982 10.5 2 5.853-.018 10.5-2 1.356 1.063 1 3h-23q-.356-1.937 1-3" style="opacity:1"/><path fill="#415478" d="M1001.5 488.5c4.9 1.946 10.23 2.613 16 2-5.48.989-11.14 1.322-17 1-.24-1.291.1-2.291 1-3" style="opacity:1"/><path fill="#495b7e" d="M1036.5 488.5c2.93 1.32 6.26 1.986 10 2 3.74-.014 7.07-.68 10-2 .9.709 1.24 1.709 1 3h-22c-.24-1.291.1-2.291 1-3" style="opacity:1"/><path fill="#46587c" d="M1066.5 488.5c4.9 1.946 10.23 2.613 16 2-5.48.989-11.14 1.322-17 1-.24-1.291.1-2.291 1-3" style="opacity:1"/><path fill="#4c5e80" d="M1114.5 488.5q9.885 2.942 21 2a61 61 0 0 1-22 0c-.17-.992.16-1.658 1-2" style="opacity:1"/><path fill="#405277" d="M1148.5 488.5q12.9 2.957 27 2c-9.15.994-18.49 1.327-28 1-.24-1.291.1-2.291 1-3" style="opacity:1"/><path fill="#4e6182" d="M1204.5 488.5c12.96 1.981 26.29 2.648 40 2a421 421 0 0 1-41 1c-.24-1.291.1-2.291 1-3" style="opacity:1"/><path fill="#506183" d="M1259.5 488.5q4.65 1.982 10.5 2 5.85-.018 10.5-2c.9.709 1.24 1.709 1 3h-23c-.24-1.291.1-2.291 1-3" style="opacity:1"/><path fill="#43567a" d="M1310.5 488.5c.9.709 1.24 1.709 1 3-4.86.319-9.53-.014-14-1 4.79.597 9.13-.07 13-2" style="opacity:1"/><path fill="#0e214f" d="M337.5 481.5a35.2 35.2 0 0 1 6 8q-1.612-1.593-3 0a1753 1753 0 0 0-24 51 55 55 0 0 0-5.5 4 34 34 0 0 0-4.5 0 2769 2769 0 0 1 31-63" style="opacity:1"/><path fill="#0a1f4d" d="M652.5 495.5q1.203 2.178 1.5 5 1.61-.448 3.5 0a120 120 0 0 1-8 29q-2.862-.575-4.5-3-.56 2.987-2.5 5 4.726-18.165 10-36" style="opacity:1"/><path fill="#081d4f" d="M378.5 487.5q.57.95 1 2 2.403-1.575 2.5 2 .574-.834 1.5-1a277 277 0 0 1-18.5 25q.001 8.486 9 8 14.024-2.999 21.5-15.5 8.532-1.649 17-.5a717 717 0 0 0 45 42q-4.581-2.43-8.5-4-2.266 1.596-.5 4a793 793 0 0 1-39-35.5 30.5 30.5 0 0 0-11 0q-8.938 13.925-25.5 15.5-14.776-.774-15-15 10.621-13.35 20.5-27" style="opacity:1"/><path fill="#f0f1f3" d="M203.5 589.5a38.6 38.6 0 0 0-.5 13q-15.552-21.101-19.5-47a77.8 77.8 0 0 1 1-17q1.902-3.608 2-8a95 95 0 0 1 6.5-16q19.994 27.472 15 61a64.6 64.6 0 0 1-4.5 14" style="opacity:1"/><path fill="#172854" d="M297.5 526.5q3.707-.4 5 3-2.611 7.58-6 .5a11 11 0 0 1 1-3.5" style="opacity:1"/><path fill="#1b2b58" d="M506.5 526.5q7.887 3.234 0 7a6.55 6.55 0 0 1-3-3 514 514 0 0 0 3-4" style="opacity:1"/><path fill="#f0f1f3" d="M616.5 524.5q1.097 7.407 4 14 1.893 13.289 0 27-1.434 7.06-4.5 14a291 291 0 0 0-10.5 19q0 1-1 1l-2-8a29.4 29.4 0 0 0-2-7q-.599-5.425-3-10-3.556-21.591 4.5-42a292 292 0 0 0 9.5-18q3.629 4.355 5 10" style="opacity:1"/><path fill="#939cb3" d="M616.5 524.5q3.37 6.457 4 14-2.903-6.593-4-14" style="opacity:1"/><path fill="#a0a6bf" d="M1036.5 531.5c8.48-.993 17.15-1.326 26-1v4h-4q1.35-.986 3-2a157 157 0 0 0-25-1" style="opacity:1"/><path fill="#979fb8" d="M1112.5 532.5a204 204 0 0 0-28-1v3c-.93-1.068-1.27-2.401-1-4 10.06-.64 19.72.027 29 2M1170.5 531.5c8.48-.993 17.15-1.326 26-1q.09 5.978-6 5a31.4 31.4 0 0 0 5-3 157 157 0 0 0-25-1" style="opacity:1"/><path fill="#9ba2bb" d="M1278.5 551.5c1.96-6.25 2.63-12.916 2-20h-64v3c-.93-1.068-1.27-2.401-1-4h66v22q-1.935.356-3-1" style="opacity:1"/><path fill="#9ba3bb" d="M1353.5 531.5h-6c-14.35-.333-28.68.001-43 1 .36.683.7 1.35 1 2-1.68-.683-2.34-2.017-2-4 16.84-.33 33.51.003 50 1" style="opacity:1"/><path fill="#a1a7c0" d="M1567.5 538.5c-.97-2.107-1.3-4.441-1-7-21.34-.333-42.68 0-64 1 .36.683.7 1.35 1 2-1.68-.683-2.34-2.017-2-4h66z" style="opacity:1"/><path fill="#f1f2f3" d="M1036.5 531.5c8.36-.331 16.69.002 25 1q-1.65 1.014-3 2c-2.58 1.068-4.74 2.735-6.5 5q-.15 36.551 3 73 .96 6.99 7.5 9 1.35.986 3 2a174.5 174.5 0 0 1-37 0c3.11-1.431 6.27-3.097 9.5-5q1.185-29.062-1.5-58c.32-3.726-.01-7.393-1-11-.61.124-.94.457-1 1q-9.06 21.534-18 43a185 185 0 0 0-9 20 173 173 0 0 1-5 11.5c-2.48.68-4.309-.153-5.5-2.5a3075 3075 0 0 0-29.5-71q-.09-.814-1-1a21.1 21.1 0 0 0-1 9 2307 2307 0 0 1-2 43.5q.002 6.023 1 11.5.468 8.454 9 7v4h-29v-3q11.025-1.297 11.5-13a6410 6410 0 0 1 4.5-62.5q1.079-12.165-11-12.5v-4q13.377-.476 26.5 1a4530 4530 0 0 1 30 69c10.22-23.09 20.38-46.09 30.5-69" style="opacity:1"/><path fill="#f6f6f7" d="M1347.5 531.5c.11 2.148-.56 2.481-2 1q-7.425 1.175-15 1.5l12 1c-3.86.177-7.52.677-11 1.5 0 .667-.33 1-1 1a201 201 0 0 0 0 40c4.18.666 8.52 1.333 13 2q2.955 2.882 4.5 0c.64 1.466 1.47 2.8 2.5 4-.33.333-.67.667-1 1a30 30 0 0 0-7 0c-.67 0-1-.333-1-1q-5.7-1.475-12-1a273 273 0 0 0 1 33q.615 5.61 6 6 1.35.986 3 2a153.7 153.7 0 0 1-35 0q1.65-1.014 3-2 5.115-1.617 6-7c1.16-24.83 1.33-49.83.5-75q-.57-.834-1.5-1c0-.667-.33-1-1-1q-2.415-2.382-6-3c-.3-.65-.64-1.317-1-2a463 463 0 0 1 43-1" style="opacity:1"/><path fill="#526285" d="M1477.5 533.5h6v24c-1.91.284-3.58-.049-5-1h4v-22c-1.91.284-3.58-.049-5-1" style="opacity:1"/><path fill="#e6e8ec" d="M915.5 539.5q-6.518-3.325-10 3 1.821 2.353 5 2.5a81 81 0 0 0-3 2.5 107 107 0 0 1-9-8.5q-15.157-7.827-31-1.5-11.608 7.272-16 20-.276-3.637-2 0-3.504-1.64 0-4 1.664 1.635 3 0a67 67 0 0 1 2-5.5q-2.418-1.08-4.5.5a7.3 7.3 0 0 1-2-3q-2.355.255-5.5 1 21.963-23.508 54-16.5 10.73 2.637 19 9.5" style="opacity:1"/><path fill="#7a87a2" d="M186.5 530.5q-.098 4.392-2 8-.31-4.493 2-8" style="opacity:1"/><path fill="#01194f" d="M907.5 547.5q10.692 20.646 7.5 44-5.969 32.503-38.5 29.5-16.999-4.745-23-21.5a51 51 0 0 1 2.5-4q2.5 1.26.5-1.5l2-1q-2-1 0-2a9.5 9.5 0 0 1-1.5-2.5q-1.5 2-3 0l-1 3q-4.153-18.576 2-37l2 4a20.6 20.6 0 0 1 2-6q1.37 1.73 2.5-.5-1.816-2.767-4-2.5 2.724-7.063 9.5-7-1.157-2.52.5-5 15.843-6.327 31 1.5a107 107 0 0 0 9 8.5" style="opacity:1"/><path fill="#a6acc0" d="M690.5 535.5a169 169 0 0 0-16 3q6.2-3.207 13.5-4 1.605.042 2.5 1" style="opacity:1"/><path fill="#021a4f" d="M1331.5 536.5q15.795-3.322 25.5 9c3.77 9.764 2.6 18.931-3.5 27.5q-9.81 5.014-21 4.5c-1.95-13.087-2.62-26.42-2-40 .67 0 1-.333 1-1" style="opacity:1"/><path fill="#f2f3f4" d="M161.5 553.5q16.545 16.838 25.5 39a31.2 31.2 0 0 1 4.5 6q-.705 1.444-2 0-3.278-3.393-8-4.5-35.202-3.68-54.5-33.5-7.57-12.28-11.5-26a101.7 101.7 0 0 1 25 6.5 166 166 0 0 1 21 12.5" style="opacity:1"/><path fill="#f4f4f5" d="M1278.5 551.5q-2.625-7.755-9-13c-.42-.722-1.08-1.222-2-1.5q-12.27-1.234-24 .5c-.67 0-1 .333-1 1a308 308 0 0 0-1 35h4c6.86.535 13.53-.298 20-2.5q3.945-3.294 3-8.5h4v28h-3q-.18-6.917-6-10.5-10.485-.75-21-.5v4c-.17 10.672 0 21.339.5 32 1.17 1.167 2.33 2.333 3.5 3.5 7.33.667 14.67.667 22 0q8.475-1.743 12-9.5 2.685-2.889 3-7h4v3c-1.41 2.719-2.08 5.719-2 9a42 42 0 0 1-1 8q-16.92 1.968-34.5 2l-33.5-1q1.65-1.014 3-2c3.95-.515 6.12-2.848 6.5-7q1.005-37 0-74-1.5-3.24-4.5-5a20.7 20.7 0 0 0-5-1v-3h64c.63 7.084-.04 13.75-2 20" style="opacity:1"/><path fill="#546486" d="M1243.5 537.5q11.73-1.734 24-.5c.92.278 1.58.778 2 1.5a195 195 0 0 0-26-1" style="opacity:1"/><path fill="#001945" d="M1311.5 537.5c.67 0 1 .333 1 1 .98 24.955 1.31 49.955 1 75-.9-.709-1.24-1.709-1-3q-3.42-.162-6-2.5 4.005-1 0-2c2.18-.442 2.85-1.442 2-3 3.04-2.571 4.38-5.571 4-9-.25-1.326-.92-2.326-2-3 1.2-1.353 1.87-3.019 2-5q.63-4.527-3-7a17.9 17.9 0 0 0 3-5c-.21-3.357-.38-6.857-.5-10.5-3.49-2.854-3.32-5.354.5-7.5-1.33-.667-2.67-1.333-4-2q4.005-1 0-2 4.005-1 0-2c.67-.667 1.33-1.333 2-2-.69-2.232-1.02-4.398-1-6.5q.525-1.794 1.5 0c-.33-1.519-.16-2.852.5-4" style="opacity:1"/><path fill="#eff0f2" d="M1477.5 533.5c1.42.951 3.09 1.284 5 1v22h-4c-6.85-20.142-20.51-26.642-41-19.5q-17.91 10.545-19.5 31.5-4.245 28.294 16.5 47.5 21.825 12.517 40.5-3.5a88 88 0 0 0 6-11c1.01-.837 2.18-1.17 3.5-1a86.2 86.2 0 0 1-3 20.5c-19.8 8.496-39.47 8.496-59 0q-20.565-12.35-22.5-36.5c-1.58-28.35 11.26-46.517 38.5-54.5 8.67-.667 17.33-.667 26 0 4.59.396 8.92 1.562 13 3.5" style="opacity:1"/><path fill="#a0a7bf" d="M1242.5 538.5v34q1.935-.356 3 1h-4c-.33-11.845.01-23.512 1-35" style="opacity:1"/><path fill="#f3f3f5" d="M690.5 535.5q-9.765 33.819-40 51.5a80 80 0 0 1-18 5.5q-9.906.661-17.5 7l-.5-1a137 137 0 0 0 14-25q15.163-27.647 46-35a169 169 0 0 1 16-3" style="opacity:1"/><path fill="#1f2f58" d="M1221.5 535.5q3 1.76 4.5 5 1.005 37 0 74c-.38 4.152-2.55 6.485-6.5 7-1.1-1.592-.43-2.425 2-2.5-1.02-1.049-1.18-2.216-.5-3.5h3c.17-6.333.33-12.667.5-19-.21-18.529-.38-37.195-.5-56q-.66 3.268-3 2c.15-1.325-.02-2.492-.5-3.5.67-.333 1.33-.667 2-1-.75-.671-1.09-1.504-1-2.5" style="opacity:1"/><path fill="#4c5d80" d="M1567.5 540.5c.98 3.798 1.32 7.798 1 12h-5v-4c.9.709 1.24 1.709 1 3h3z" style="opacity:1"/><path fill="#182a54" d="M1511.5 541.5a917 917 0 0 1 .5 74c-.61 1.566-1.44 2.9-2.5 4a8.4 8.4 0 0 0-.5-4c-.33.333-.67.667-1 1-1.86-1.561-3.03-3.228-3.5-5q.525-1.794 1.5 0c.62-.949.45-1.782-.5-2.5 1.83-.5 3-1.667 3.5-3.5.33 1 .67 2 1 3q.255-33.756 1.5-67" style="opacity:1"/><path fill="#73859e" d="M1312.5 538.5q.93.166 1.5 1c.83 25.17.66 50.17-.5 75v-1c.31-25.045-.02-50.045-1-75" style="opacity:1"/><path fill="#0c204c" d="M867.5 537.5q-1.657 2.48-.5 5-6.776-.063-9.5 7 2.184-.267 4 2.5-1.13 2.23-2.5.5a20.6 20.6 0 0 0-2 6l-2-4q-6.153 18.424-2 37l1-3q1.5 2 3 0 .561 1.375 1.5 2.5-2 1 0 2l-2 1q2 2.76-.5 1.5a51 51 0 0 0-2.5 4q-6.47-20.863-2-42 4.392-12.728 16-20" style="opacity:1"/><path fill="#f0f1f2" d="M915.5 539.5q18.444 14.243 18 38-2.293 43.287-45 49a101 101 0 0 1-28-3q-23.51-10.046-28.5-35-1.232-10.768.5-21 2.666-4.507 3-10a56 56 0 0 1 7-11q3.145-.745 5.5-1a7.3 7.3 0 0 0 2 3q2.082-1.58 4.5-.5a67 67 0 0 0-2 5.5q-1.336 1.635-3 0-3.504 2.36 0 4 1.724-3.637 2 0-4.47 21.137 2 42 6.001 16.755 23 21.5 32.531 3.003 38.5-29.5 3.192-23.354-7.5-44a81 81 0 0 1 3-2.5q-3.179-.147-5-2.5 3.482-6.325 10-3" style="opacity:1"/><path fill="#6c7f99" d="M1330.5 537.5c-.62 13.58.05 26.913 2 40h-2a201 201 0 0 1 0-40" style="opacity:1"/><path fill="#71819c" d="M1528.5 539.5v33h20q-10.215 1.487-21 1a290 290 0 0 1 1-34" style="opacity:1"/><path fill="#f0f0f2" d="M776.5 534.5q-5.065-.648-9 2-10.6 3.333-16.5 13-9.923 20.042-5 42 12.615 39.935 51.5 25.5 7.503-5.769 11-14.5 1.783-1.393 4-1a312 312 0 0 0-3 20 25.6 25.6 0 0 0-10 3.5 100 100 0 0 1-14 1.5q-13.125.367-26-2-23.827-7.077-31.5-31-9.302-45.666 33.5-62.5a154 154 0 0 1 33-1 135 135 0 0 0 16 3.5v24h-4q-5.403-23.73-30-23" style="opacity:1"/><path fill="#677694" d="M776.5 534.5q-4.216 1.463-9 2 3.935-2.648 9-2" style="opacity:1"/><path fill="#5a698a" d="m967.5 551.5-2 8a21.1 21.1 0 0 1 1-9q.91.186 1 1" style="opacity:1"/><path fill="#5c6b8c" d="M1034.5 550.5c.06-.543.39-.876 1-1a31.2 31.2 0 0 1 1 11c-.67-3.333-1.33-6.667-2-10" style="opacity:1"/><path fill="#031b4c" d="M183.5 555.5q3.948 25.899 19.5 47a38.6 38.6 0 0 1 .5-13 32 32 0 0 0 6 1.5q-.841 2.349 2 4l-4.5 4.5a3.94 3.94 0 0 1-2-1q.028 2.41.5 5a12.9 12.9 0 0 0-5 .5q3.314 1.436-.5 3.5-1.472-4.732-4-1-4.173-3.406-6.5-8 1.295 1.444 2 0a31.2 31.2 0 0 0-4.5-6q-8.955-22.162-25.5-39 2.276.016 3.5 2l2-2a456 456 0 0 1 4 3l1-2a29 29 0 0 0 5 4q-1.476-3.147 1-6 2.097-.826 4-1 .315 2.337 1.5 4" style="opacity:1"/><path fill="#909ab2" d="M360.5 560.5q1.161-.97 3-1 2.782-.24 4 2a21.4 21.4 0 0 0-7-1" style="opacity:1"/><path fill="#e9eaee" d="M341.5 577.5q-8.14-.648-8-9 3.477-9.264 13-7.5 5.046 4.539 1.5 10.5-2.293 4.139-6.5 6" style="opacity:1"/><path fill="#0b1f50" d="M339.5 555.5q10.483-2.984 16 7 2.025-2.175 5-2a21.4 21.4 0 0 1 7 1q6.506 3.52 7 11 15.34-.164 14 15 15.404 2.91 11 18-1.148-1.74-3-3-2.01 2.05-4 4 4.503-6.709-1-12.5a12.5 12.5 0 0 0-7 0q-8.152 5.053-7 14.5-1.125-.561-3 0l-5-4a7.25 7.25 0 0 0-2.5 2q-.476-2.701-2-1a28.4 28.4 0 0 0-7.5-4.5q.364-3.412 4-5.5 2.965 6.705 10 4.5 6.378-5.372 10.5-12.5 2.75-11.25-8.5-8.5a176 176 0 0 0-11 11.5q-1.788-1.599 1-2.5a9.5 9.5 0 0 1-2.5-1.5q-.625 1.884-2.5 2a159 159 0 0 1 9.5-12q2.25-11.75-9.5-9.5a59.3 59.3 0 0 0-10.5 12.5q-1.055 3.643.5 7-3.17-1.29-3.5-5-1.461 3.567-2-1a11.3 11.3 0 0 0-3.5-1.5q1.374-.417 2-1.5 4.207-1.861 6.5-6 3.546-5.961-1.5-10.5-9.523-1.764-13 7.5-1.345-1.647-2.5 0a4.46 4.46 0 0 1-1.5-2q6.174-7.762 15-8.5-2.928-.549-5-2.5" style="opacity:1"/><path fill="#919ab2" d="M835.5 557.5q-.334 5.493-3 10 .334-5.493 3-10" style="opacity:1"/><path fill="#798aa2" d="M1558.5 590.5c.33-9.025 0-18.025-1-27q-1.23 2.79-3 5c.33-2 .67-4 1-6h4c.33 9.515-.01 18.848-1 28" style="opacity:1"/><path fill="#f6f6f6" d="M1567.5 538.5v13h-3c.24-1.291-.1-2.291-1-3-1.42-5.919-5.08-9.752-11-11.5-7.67-.667-15.33-.667-23 0-.75.671-1.09 1.504-1 2.5a290 290 0 0 0-1 34q10.785.487 21-1 4.11-.539 6-4 1.77-2.21 3-5c1 8.975 1.33 17.975 1 27h-3q.465-7.343-6-10c-7.15-.992-14.48-1.325-22-1a273 273 0 0 0 1 33q.075 3.899 3 6.5c7.75.798 15.41.631 23-.5a65.7 65.7 0 0 1 11-1c1.57 1.214 2.4 2.881 2.5 5 .33-1.667.67-3.333 1-5 .5 2.31.66 4.643.5 7-22.34.333-44.68 0-67-1q1.65-1.014 3-2c1.33-.667 2.67-1.333 4-2 1.06-1.1 1.89-2.434 2.5-4 .83-24.837.66-49.503-.5-74-.83-4.504-3.5-6.837-8-7-.3-.65-.64-1.317-1-2 21.32-1 42.66-1.333 64-1-.3 2.559.03 4.893 1 7" style="opacity:1"/><path fill="#677795" d="M1093.5 569.5c-.02 8.865-.68 17.532-2 26-.08-8.872.59-17.539 2-26" style="opacity:1"/><path fill="#6e7b99" d="M597.5 574.5q2.401 4.575 3 10l-2-2z" style="opacity:1"/><path fill="#eaebee" d="M358.5 588.5q-3.919 1.403-8 .5-1.321-1.062-2-2.5-1.555-3.357-.5-7a59.3 59.3 0 0 1 10.5-12.5q11.75-2.25 9.5 9.5a159 159 0 0 0-9.5 12" style="opacity:1"/><path fill="#0d214c" d="M1269.5 590.5c-2.19-.908-4.36-.575-6.5 1-.67-2.667-1.33-2.667-2 0a47.3 47.3 0 0 0-4.5-8 15 15 0 0 0-3.5 3c-1.08-1.894-2.41-2.227-4-1a14.8 14.8 0 0 0-6.5-2v-4q10.515-.25 21 .5 5.82 3.583 6 10.5" style="opacity:1"/><path fill="#041b47" d="m598.5 582.5 2 2a29.4 29.4 0 0 1 2 7v5a71 71 0 0 1-2-4q-1.19.647-2.5 1l-8-8q-1 4-2 0-3.394 3.312-5-2-.297 2.822-1.5 5v-6q1.782-1.776 3.5 0l1-2q1.173 4.032 4.5 3 4.245 3.441 8-1" style="opacity:1"/><path fill="#f0f0f2" d="M1347.5 531.5h6q25.56 3.321 22.5 29c-2.95 9.447-9.11 15.781-18.5 19a1198 1198 0 0 0 22.5 35c2.78 4.112 6.61 6.612 11.5 7.5.84 1.011 1.17 2.178 1 3.5q-12.015.25-24-.5a45.4 45.4 0 0 1-7.5-8.5 1098 1098 0 0 0-18.5-32 30 30 0 0 1 7 0c.33-.333.67-.667 1-1a15.8 15.8 0 0 1-2.5-4q-1.545 2.882-4.5 0c-4.48-.667-8.82-1.334-13-2h2q11.19.514 21-4.5c6.1-8.569 7.27-17.736 3.5-27.5q-9.705-12.322-25.5-9c3.48-.823 7.14-1.323 11-1.5l-12-1q7.575-.325 15-1.5c1.44 1.481 2.11 1.148 2-1" style="opacity:1"/><path fill="#6a7c98" d="M1341.5 583.5h-11v32a273 273 0 0 1-1-33q6.3-.475 12 1" style="opacity:1"/><path fill="#f2f2f4" d="M579.5 583.5q1.863 14.778 0 30a96 96 0 0 1-3 13q-10.257 21.757-31 34a26.5 26.5 0 0 0 3.5-6q-4.432-44.12 30.5-71" style="opacity:1"/><path fill="#6c7c98" d="M1549.5 580.5h-21v32a273 273 0 0 1-1-33c7.52-.325 14.85.008 22 1" style="opacity:1"/><path fill="#ecedf0" d="M361.5 595.5q-.201-2.687 1-5a176 176 0 0 1 11-11.5q11.25-2.75 8.5 8.5-4.122 7.128-10.5 12.5-7.035 2.205-10-4.5" style="opacity:1"/><path fill="#0b204d" d="M620.5 565.5q.598 3.835 1 8 2.45.702 3.5 3 .633-2.889 3.5-3a137 137 0 0 1-14 25l.5 1q7.594-6.339 17.5-7-2.417 2.392-6 3.5 3.036 2.187.5 5.5l-1-3a7.3 7.3 0 0 1-2 3l-5-3q-2.376 2.042-5.5 2a8.4 8.4 0 0 0-.5-4q-2.014 1.07-4-1-1.139 2.344-3.5 3a291 291 0 0 1 10.5-19q3.066-6.94 4.5-14" style="opacity:1"/><path fill="#071d4b" d="M451.5 589.5q1.078 2.387 3 4.5a36 36 0 0 0-4.5 3.5q-2.712-.582-5 0a7.3 7.3 0 0 0-2 3l-1-2-2 4q-1.63-3.648-1.5 1-3.061.531-5.5 0-1.565 1.684-2 4l-1-1q-.629 6.528-2 1-1 4-2 0-1 2-2 0-2.97 5.729-6-1-.625 1.884-2.5 2 1.368-1.858.5-4a169 169 0 0 1-16-15q-.936-2.946 1.5-5a578 578 0 0 0 22 18.5q4 1 8 0 8-5.5 0-11a255 255 0 0 1-20.5-17.5q-.518-3.488 3-5a437 437 0 0 1 26.5 23.5q6.942 2.005 11-3.5" style="opacity:1"/><path fill="#eff0f2" d="M1112.5 532.5q13.5 34.252 28.5 68a1766 1766 0 0 0 29.5-69c8.36-.331 16.69.002 25 1a31.4 31.4 0 0 1-5 3c-1.29.79-2.46 1.79-3.5 3a1708 1708 0 0 0 3 75q.975 6.716 7.5 8 1.35.986 3 2a171.7 171.7 0 0 1-37 0q1.65-1.014 3-2c2.76-.244 4.93-1.577 6.5-4a2058 2058 0 0 0-2.5-56c.32-4.055-.01-8.055-1-12-.8.457-1.13 1.124-1 2a3278 3278 0 0 1-30.5 73c-.72.559-1.56.892-2.5 1-2.29-1.892-4.13-4.225-5.5-7a4813 4813 0 0 0-27.5-67c.13-.876-.2-1.543-1-2-.97 1.896-1.3 3.896-1 6a543 543 0 0 0-1.5 62c1.45 1.964 3.28 3.297 5.5 4 1.22.661 2.55 1.328 4 2a98.5 98.5 0 0 1-28 0q1.65-1.014 3-2c3.76-1.267 5.92-3.934 6.5-8q.315-9.121 1.5-18c1.32-8.468 1.98-17.135 2-26 1.16-10.158 1.33-20.492.5-31-2.48-2.989-5.65-4.322-9.5-4v-3c9.42-.305 18.75.028 28 1" style="opacity:1"/><path fill="#637492" d="M1170.5 561.5c-.67-3.333-1.33-6.667-2-10-.13-.876.2-1.543 1-2a37 37 0 0 1 1 12" style="opacity:1"/><path fill="#798aa3" d="M1102.5 551.5c-.67 1.333-1.33 2.667-2 4-.3-2.104.03-4.104 1-6 .8.457 1.13 1.124 1 2" style="opacity:1"/><path fill="#eaebee" d="M392.5 606.5q-6.747 8.38-15 2-1.152-9.447 7-14.5a12.5 12.5 0 0 1 7 0q5.503 5.791 1 12.5" style="opacity:1"/><path fill="#051c48" d="M1016.5 593.5c1.18 1.162 2.34 2.162 3.5 3l3-1c.62.949.45 1.782-.5 2.5.67.333 1.33.667 2 1-4.2.496-4.87 2.163-2 5-1.5.833-2.67 2-3.5 3.5-.33-.667-.67-1.333-1-2-1.58 4.08-4.41 7.08-8.5 9-.68-.363-1.35-.696-2-1q3.945-10.355 9-20" style="opacity:1"/><path fill="#051d48" d="M1287.5 610.5v-8h-4q-.315 4.111-3 7v-3q-3.42-.162-6-2.5c.75-1.487 1.59-1.654 2.5-.5.62-.949.45-1.782-.5-2.5.95-.617 1.78-.451 2.5.5 3.66-5.029 7.99-4.696 13 1 .91-1.154 1.75-.987 2.5.5a11.4 11.4 0 0 0-1.5 3.5q-1.5 2-3 0a52 52 0 0 0-2.5 4" style="opacity:1"/><path fill="#9ca5ba" d="m602.5 591.5 2 8q-.278 2.544-2.5 4a16.6 16.6 0 0 1 .5-7z" style="opacity:1"/><path fill="#74839f" d="M579.5 583.5q.513-1.257 2-1v6q.25 11.011-.5 22-.348 1.855-1.5 3 1.863-15.222 0-30" style="opacity:1"/><path fill="#f3f3f4" d="M256.5 631.5q.25 10.512-.5 21-1.224 1.984-3.5 2a41 41 0 0 1-7-5 84.6 84.6 0 0 1-13-17 87 87 0 0 1-5-14 121.3 121.3 0 0 1-1-35q19.108 15.358 28.5 38a31.3 31.3 0 0 1 1.5 10" style="opacity:1"/><path fill="#677694" d="M1569.5 602.5c1.07-.934 2.4-1.268 4-1 .06 4.576-.6 8.909-2 13 .15-4.019.48-8.019 1-12z" style="opacity:1"/><path fill="#e1e2e7" d="M1569.5 602.5h3a130 130 0 0 0-1 12c.18 3.622-.49 6.956-2 10 .16-2.357 0-4.69-.5-7-.33 1.667-.67 3.333-1 5-.1-2.119-.93-3.786-2.5-5a65.7 65.7 0 0 0-11 1q11.565-4.075 15-16" style="opacity:1"/><path fill="#76849f" d="M1287.5 605.5v5c-.67 1.333-1.33 2.667-2 4-.08-3.281.59-6.281 2-9" style="opacity:1"/><path fill="#b7bacb" d="M648.5 614.5q-13.05-.316-26 1 1.145-1.152 3-1.5 11.767-1.233 23 .5" style="opacity:1"/><path fill="#d5d7df" d="M175.5 614.5q-9.513-.25-19 .5l10 1q-6.449.389-11 4.5-5.046-2.677-2-6.5 11.268-1.233 22 .5" style="opacity:1"/><path fill="#f4f4f5" d="M175.5 614.5q12.656.314 24 5 13.204 7.179 24 18 6.57 10.072 17 16a14.7 14.7 0 0 0 3 3.5 2.43 2.43 0 0 1-2 .5q-5.872-6.06-14.5-7a80.1 80.1 0 0 1-21.5 2q-15.92-1.224-29-10.5a128 128 0 0 1-21-21.5q4.551-4.111 11-4.5l-10-1q9.487-.75 19-.5" style="opacity:1"/><path fill="#f5f5f6" d="M648.5 614.5q4.12-.47 8 1-13.423 19.674-34 31.5a129 129 0 0 1-15 4.5q-16.928.749-33-3a138 138 0 0 0 13-15q14.789-14.145 35-18 12.95-1.316 26-1" style="opacity:1"/><path fill="#071e4a" d="M964.5 614.5q.9 4.687 3.5 1a566 566 0 0 0 4.5 3q2.224-3.668 3.5 1 1.461-3.567 2 1 1.207-3.601 2.5.5-.368 2.866 0 6-1.926 1.026-3.5-.5l-3 2q-12.224-1.237-25.5-1-2.294.044-3.5 2a81 81 0 0 0-6.5-5.5q2-1 0-2a9.5 9.5 0 0 0 2.5-1.5q1.224 1.984 3.5 2v3h29v-4q-8.532 1.454-9-7" style="opacity:1"/><path fill="#061d48" d="M227.5 618.5a87 87 0 0 0 5 14q-2.51-1.264-3.5-4-.097 3.575-2.5 2-7.556 2.102-2 6.5-.343.598-1 .5-10.796-10.821-24-18 6.256.49 11.5 0a11.3 11.3 0 0 0 1.5 3.5l-2 1q4.112 4.727 6.5.5 2.59 1.31 5.5-.5a38 38 0 0 0 5-5.5" style="opacity:1"/><path fill="#c1c3d1" d="M1062.5 621.5h4v4c-13.04.647-25.71-.02-38-2a174.5 174.5 0 0 0 37 0q-1.65-1.014-3-2" style="opacity:1"/><path fill="#b3b7c8" d="M1083.5 621.5q-1.35.986-3 2a98.5 98.5 0 0 0 28 0 72 72 0 0 1-4-2h5v4h-30v-4z" style="opacity:1"/><path fill="#babdcc" d="M1166.5 621.5q-1.35.986-3 2a171.7 171.7 0 0 0 37 0q-1.65-1.014-3-2h4v4h-39v-4z" style="opacity:1"/><path fill="#c6c7d5" d="M1219.5 621.5q-1.35.986-3 2l33.5 1q17.58-.032 34.5-2v3h-69v-4z" style="opacity:1"/><path fill="#c3c5d4" d="M1307.5 621.5q-1.35.986-3 2a153.7 153.7 0 0 0 35 0q-1.65-1.014-3-2h4v4h-37v-4z" style="opacity:1"/><path fill="#c8c9d6" d="M1505.5 621.5q-1.35.986-3 2c22.32 1 44.66 1.333 67 1-22.49.997-45.16 1.331-68 1v-4z" style="opacity:1"/><path fill="#969fb6" d="M759.5 624.5a124 124 0 0 0 26 2q-8.227 1.727-17 .5-4.863-.609-9-2.5" style="opacity:1"/><path fill="#919bb3" d="M860.5 623.5a101 101 0 0 0 28 3q-14.405 2.723-28-3" style="opacity:1"/><path fill="#091e4e" d="M576.5 626.5q.644 2.179.5 5l1-1q3.71 5.249 9.5 3a138 138 0 0 1-13 15q-2.726 1.079-2 3a15.4 15.4 0 0 1 7-1q-1.063 1.356-3 1 .489 4.66-3.5 7-1.255-9.505-2 1-1.037-3.586-3 0-2.85-1.371-6.5 0a84 84 0 0 1 7.5-8 27.8 27.8 0 0 1 6-8q1-1 0-2a877 877 0 0 1-19.5 18q.329-1.762-1-3a35 35 0 0 0-8 6q-1.197-.686-1-2 20.743-12.243 31-34" style="opacity:1"/><path fill="#041c4b" d="M232.5 632.5a84.6 84.6 0 0 0 13 17q-1.627 3.13-5 4-10.43-5.928-17-16 .657.098 1-.5-5.556-4.398 2-6.5 2.403 1.575 2.5-2 .99 2.736 3.5 4" style="opacity:1"/><path fill="#f2f2f4" d="M326.5 688.5q.793 8.31 7 14l-1 1-20-10q-30.891-21.399-30-59 35.828 15.819 44 54" style="opacity:1"/><path fill="#cacdd8" d="M256.5 631.5q1.046 10.85 2 22 .26 4.019 3 7l-1 1q-2.529-2.035-5-4a6.55 6.55 0 0 1-3-3q2.276-.016 3.5-2 .75-10.488.5-21" style="opacity:1"/><path fill="#f2f3f4" d="M524.5 633.5q.297 53.48-51 69.5a32 32 0 0 0 5.5-7.5q3.377-31.01 27.5-50.5a269 269 0 0 1 18-11.5" style="opacity:1"/><path fill="#0d214d" d="M241.5 657.5q-1.494.129-2.5-1l-3 3q-1-4-2 0-.673-2.586-2.5-2 .702-2.45 3-3.5l-3-1.5a168 168 0 0 0-7.5 2 3.94 3.94 0 0 0-2-1 25.3 25.3 0 0 1-6 3q-4.467.258-9-2-3.14 1.1-1.5-2a80.1 80.1 0 0 0 21.5-2q8.628.94 14.5 7" style="opacity:1"/><path fill="#b6baca" d="M574.5 648.5q16.072 3.749 33 3-13.915 2.233-28-1a15.4 15.4 0 0 0-7 1q-.726-1.921 2-3" style="opacity:1"/><path fill="#081e4b" d="M258.5 653.5a31 31 0 0 1 2 2q3.287-1.756 6.5 1l1-2a6.98 6.98 0 0 0 2.5 3.5q-1.13 2.23-2.5.5-.684 1.866 1.5 2.5a21.8 21.8 0 0 1-6 5q.178 1.718 1 3.5a72.8 72.8 0 0 0-13-7q2.8-1.89 4-5 2.471 1.965 5 4l1-1q-2.74-2.981-3-7" style="opacity:1"/><path fill="#d9dce3" d="M251.5 662.5a72.8 72.8 0 0 1 13 7 301.2 301.2 0 0 0 48 31 306 306 0 0 0 26 11 342 342 0 0 0 25 7.5q2.21 1.064 2 3.5a158 158 0 0 1-24-6 296 296 0 0 1-35-16 2058 2058 0 0 0-8-5 357.5 357.5 0 0 1-47-32z" style="opacity:1"/><path fill="#f3f4f5" d="M556.5 672.5q24.69-2.251 47 8-37.566 39.077-86 14a181 181 0 0 0 21-14.5q8.655-5.092 18-7.5" style="opacity:1"/><path fill="#f3f3f4" d="M265.5 703.5q-26.53 3.744-48-12.5a183 183 0 0 1-12-10.5 63.4 63.4 0 0 1 19-6q17.562-4.247 35 .5a298 298 0 0 1 30 19.5q-11.514 6.276-24 9" style="opacity:1"/><path fill="#091e4e" d="M1489.5 680.5c.88-.131 1.54.202 2 1q-2.4 6.46-4.5 13-.42-1.374-1.5-2a66 66 0 0 1-4-10.5 9.2 9.2 0 0 1 2-2.5q-4.425-1.732-9-.5 2.7 2.391 3 6a67 67 0 0 1-4 10.5 328 328 0 0 0-5-13.5c2.68-2.557 2.01-3.724-2-3.5.65-1.106.98-2.106 1-3 1.76.194 3.6.194 5.5 0 .33.667.67 1.333 1 2 1.35-2.749 2.68-3.083 4-1 1.59-1.227 2.92-.894 4 1q2.865.368 6 0 .345 1.855 1.5 3" style="opacity:1"/><path fill="#091e4c" d="M251.5 663.5a357.5 357.5 0 0 0 47 32q-2.377-.728-4.5 2-2.668-1.469-5 1-1.574-1.526-3.5-.5a21.3 21.3 0 0 1-5 4l1 1a11.3 11.3 0 0 0-3.5 1.5q-1.524-1.701-2 1-4.803.702-10.5-2 12.486-2.724 24-9a298 298 0 0 0-30-19.5q-17.438-4.747-35-.5.318-2.826 3-4 6.332-.668 13.5 0 1-4 2 0a4.93 4.93 0 0 0 .5-3q3.584-2.524 8-4" style="opacity:1"/><path fill="#051c48" d="M1281.5 678.5a153 153 0 0 0-5 11q-1.08-.626-1.5-2a53.6 53.6 0 0 1-8.5 2.5c.33.333.67.667 1 1-1.9 1.11-3.73 1.276-5.5.5.02 1.607.19 3.274.5 5q-1.47-1.898-3-4 5.91-4.827 3-12c3.68 1.302 7.51 1.302 11.5 0 1.49-.753 1.65-1.586.5-2.5q2.235-2.052 4.5-.5c1.46-2.024 3.29-2.191 5.5-.5q-1.86.348-3 1.5" style="opacity:1"/><path fill="#dcdee5" d="M1171.5 703.5c-2.56.302-4.89-.032-7-1q2.64-1.144 3-4c2.24-3.598 3.57-7.598 4-12 2.19-1.721 3.36-4.055 3.5-7 1.01-.837 2.18-1.17 3.5-1 2.15 6.312 4.32 12.645 6.5 19q1.17 3.864 4.5 6-4.5 2-9 0 2.37-11.602-9-7-2.925 3.942 0 7" style="opacity:1"/><path fill="#0c214d" d="M1314.5 678.5a5.7 5.7 0 0 1 3 1c.96.453 1.79 1.119 2.5 2q1.005 10 0 20-.57.834-1.5 1c.13-3.512-.2-7.178-1-11-3.2-.451-6.37-.784-9.5-1q-.315 2.337-1.5 4v-13h6q-.06 1.884 1.5 3c.5-1.973.66-3.973.5-6" style="opacity:1"/><path fill="#e5e5ea" d="M882.5 679.5q3.786-1.95 8 0a307 307 0 0 0 13.5 16 49.2 49.2 0 0 0 0-14q-4.827-2.883 1.5-3 2.75.128 4 2-1.487-.257-2 1-.522 11.335-3 22a388 388 0 0 0-15.5-18 64.2 64.2 0 0 0 0 16q.575.834 1.5 1 1 0 1 1-4.328.46-8-1 .925-.166 1.5-1a100.2 100.2 0 0 0 0-20q-1.062-1.321-2.5-2" style="opacity:1"/><path fill="#d9dce3" d="M962.5 678.5a18.5 18.5 0 0 1-.5 6 6.98 6.98 0 0 0-2.5-3.5 25 25 0 0 0-7-.5v9q4.298.667 7.5-2a12.5 12.5 0 0 1 0 7q-3.159-2.687-7.5-2v9a32.5 32.5 0 0 0 8-.5q1.456-2.222 4-2.5l-1 6h-8a31.1 31.1 0 0 1-11-1q.5-1.5 2-2 1.977-10.233 0-20a31 31 0 0 0-2-2 82 82 0 0 1 18-1" style="opacity:1"/><path fill="#0a1f4c" d="M962.5 678.5q2.351 1.771 2.5 5 2.566-1.622 4.5 1-1.899 6.048 0 12-2.855.444-5 2-2.544.278-4 2.5a32.5 32.5 0 0 1-8 .5v-9q4.341-.687 7.5 2a12.5 12.5 0 0 0 0-7q-3.202 2.667-7.5 2v-9q3.535-.245 7 .5a6.98 6.98 0 0 1 2.5 3.5q.743-2.96.5-6" style="opacity:1"/><path fill="#e3e5ea" d="M1014.5 681.5q-2.64-1.442-6-1c-.32 7.187.01 14.187 1 21a32 32 0 0 0 2 2l-5 1c-2.14-.056-3.81-.723-5-2 .99.172 1.66-.162 2-1 .99-6.813 1.32-13.813 1-21q-3.36-.442-6 1a5.73 5.73 0 0 0-1 3q-2.712-2.127-2-6h22c.3 2.104-.03 4.104-1 6a7.44 7.44 0 0 1-2-3" style="opacity:1"/><path fill="#0a1f4b" d="M1120.5 680.5c1-.086 1.83.248 2.5 1q1.605 10.911-1.5 21c-.84.342-1.17 1.008-1 2a34 34 0 0 0-5.5 0c-2.4 2.47-5.07 3.804-8 4l-3-1c-.47-1.077-.3-2.077.5-3 11.22-2.393 15.05-9.059 11.5-20-7.51-7.592-15.34-7.926-23.5-1q-.63-4.237 3-6.5a95 95 0 0 1 10.5-2.5 40 40 0 0 1 9 6c1.92-.152 3.76-.152 5.5 0" style="opacity:1"/><path fill="#eaeaee" d="M1139.5 701.5c-2.9 1.237-6.07 1.903-9.5 2-3.02-.002-5.85-.336-8.5-1q3.105-10.089 1.5-21c-.67-.752-1.5-1.086-2.5-1 1.19-1.277 2.86-1.944 5-2l5 1a11.5 11.5 0 0 1-2.5 2c-.5 6.658-.67 13.325-.5 20 4.72.947 8.56-.386 11.5-4 .49 1.293.66 2.627.5 4" style="opacity:1"/><path fill="#eaebee" d="M1206.5 703.5c-4.86.319-9.53-.014-14-1q.93-.166 1.5-1c.83-7.024.66-14.024-.5-21a4.47 4.47 0 0 1-2-1.5q7.5-1 15 0c4.87 3.178 5.2 6.845 1 11 5.62 5.136 5.28 9.636-1 13.5" style="opacity:1"/><path fill="#c2c6d4" d="M1314.5 678.5c.16 2.027 0 4.027-.5 6q-1.56-1.116-1.5-3c.54-.06.88-.393 1-1a24.55 24.55 0 0 0-12-.5q1.995 10.898 0 21.5v-20c-3.41-.672-6.07.328-8 3-.97-1.896-1.3-3.896-1-6z" style="opacity:1"/><path fill="#f5f5f6" d="M1312.5 681.5h-1q-2.64-1.442-6-1c-.32 7.187.01 14.187 1 21 .67.667 1.33 1.333 2 2a41 41 0 0 1-9-.5c.56-.383.89-.883 1-1.5h1q1.995-10.602 0-21.5 6.06-1.24 12 .5c-.12.607-.46.94-1 1" style="opacity:1"/><path fill="#6e7e9a" d="M843.5 678.5h4q.452 3.839-1 7v-6q-1.937.356-3-1" style="opacity:1"/><path fill="#0c214c" d="M882.5 679.5q1.438.679 2.5 2a100.2 100.2 0 0 1 0 20q-.575.834-1.5 1-1.258.513-1 2-3.566-.426-6.5 0-.726-2.517-2.5-2 4.946-4.386 6-11 1.185 1.663 1.5 4 3.442-4.998 2-11l-1 3a15.8 15.8 0 0 0-3.5-5.5q2.905-.183 4-2.5" style="opacity:1"/><path fill="#091f4a" d="M909.5 680.5q2.214.582 4 0 1.494-.129 2.5 1 1.231 10.27-.5 20a41 41 0 0 0-.5-9q-3.3 3.496-6 0-.264 6.282-1.5 12v-23q.513-1.257 2-1" style="opacity:1"/><path fill="#dfe1e7" d="M1433.5 703.5c-2.36.163-4.69-.003-7-.5a176 176 0 0 0-8-10.5c-.33 1.667-.67 3.333-1 5 .11 2.141.78 3.975 2 5.5q-4.5 1-9 0c1.54-1.11 2.2-2.61 2-4.5.57-6.553-.1-12.887-2-19a33.2 33.2 0 0 1 14-.5q9.78 6.478 0 13.5 3.465 6.492 9 11" style="opacity:1"/><path fill="#697c96" d="M938.5 681.5v23q-1.937.356-3-1 2.478-10.665 3-22" style="opacity:1"/><path fill="#061d48" d="M940.5 680.5q-1.667 7.374-.5 15 1.967-3.237 5-1 2.05-6.3 1.5-13 1.977 9.767 0 20-1.5.5-2 2a31.1 31.1 0 0 0 11 1 97 97 0 0 1-6.5 2q-3.276-.912-6 2l-1-2q-3.776 2.946-8 2-.476-2.701-2-1-3.168-3.633-6 0a7.3 7.3 0 0 1-2-3q-3.727 3.513-7.5 0 3.352.442 6-1v-1q.925.166 1.5 1a82 82 0 0 1 7.5-4q2.54 1.541 4 4 1.063 1.356 3 1v-23q.513-1.257 2-1" style="opacity:1"/><path fill="#011945" d="M998.5 681.5h5v20c-.34.838-1.01 1.172-2 1a39 39 0 0 1-4.5-2 4.93 4.93 0 0 0-.5 3 8.4 8.4 0 0 0-4 .5l2 1a6.98 6.98 0 0 0-3.5 2.5q-1.903-.174-4-1-.905 3.279-3.5.5 1.647-1.155 0-2.5 8.463 1.093 8-7 1.438.679 2.5 2 3.635-1.929 4.5-4.5a86 86 0 0 0-8-7.5q1.726-1.847 3.5 0a30 30 0 0 1 3.5-3 5.73 5.73 0 0 1 1-3" style="opacity:1"/><path fill="#637491" d="M998.5 681.5q2.64-1.442 6-1c.32 7.187-.01 14.187-1 21v-20z" style="opacity:1"/><path fill="#485a7d" d="M1014.5 681.5h-5v20c-.99-6.813-1.32-13.813-1-21q3.36-.442 6 1" style="opacity:1"/><path fill="#071e49" d="M1171.5 686.5c-.43 4.402-1.76 8.402-4 12-.42-.624-1.08-.957-2-1-1.37.725-2.7 1.392-4 2 .13-.739-.04-1.406-.5-2a7 7 0 0 1-2.5 3.5c-2.65.497-5.31.664-8 .5-.63-7.413.04-14.413 2-21q1.08-.626 1.5-2c2.18 2.478 1.85 4.478-1 6-.33-1-.67-2-1-3q-1.005 9 0 18c1.34-2.105 3-2.771 5-2a76.7 76.7 0 0 1 14.5-11" style="opacity:1"/><path fill="#132651" d="M1198.5 680.5c4.29-1.017 6.62.65 7 5-.97 3.487-3.3 4.82-7 4z" style="opacity:1"/><path fill="#6b7d98" d="M1311.5 681.5h-5v20c-.99-6.813-1.32-13.813-1-21q3.36-.442 6 1" style="opacity:1"/><path fill="#506283" d="M1332.5 681.5h-7v8h-1v-9c2.89-.306 5.55.027 8 1" style="opacity:1"/><path fill="#0d214f" d="M1417.5 680.5c6.8.607 8.46 3.774 5 9.5-1.63.494-3.3.66-5 .5z" style="opacity:1"/><path fill="#d9dce3" d="M1281.5 678.5c2.67 4.329 5.33 8.662 8 13 .83 4.397 2.5 8.397 5 12q-4.29 1.955-9 0c1.82-1.972 1.99-4.306.5-7-3.12-1.287-6.29-1.287-9.5 0q-1.515 4.155 0 7a18.4 18.4 0 0 1-6-.5c.56-.383.89-.883 1-1.5a86 86 0 0 0 5-12 153 153 0 0 1 5-11" style="opacity:1"/><path fill="#e3e4e9" d="M1442.5 678.5c15.86-.965 21.02 6.035 15.5 21-4.14 4.711-9.31 6.211-15.5 4.5-8.43-5.358-10.27-12.524-5.5-21.5a60 60 0 0 1 5.5-4" style="opacity:1"/><path fill="#74859e" d="M907.5 681.5v23q-1.937.356-3-1 2.478-10.665 3-22" style="opacity:1"/><path fill="#e4e5ea" d="M843.5 678.5q1.063 1.356 3 1v6q-8.109-9.897-16.5 0-3.984 16.488 12.5 15.5a19.9 19.9 0 0 1 4-3.5q2.09 3.26-1 5.5-15.192 6.352-21-8.5.306-4.527 1-9 1.166-3.918 5-5.5a36.1 36.1 0 0 1 13-1.5" style="opacity:1"/><path fill="#dee0e7" d="M1086.5 685.5c-1.75-1.242-3.42-2.742-5-4.5q-12.69-2.572-12 10.5c.68 8.016 5.01 11.183 13 9.5a19.7 19.7 0 0 1 4-3.5q.96 4.57-3 6.5c-14.17 1.833-20.33-4.333-18.5-18.5 2.75-4.792 6.91-7.126 12.5-7q4.53.403 9 1z" style="opacity:1"/><path fill="#e0e1e8" d="M879.5 691.5q-1.054 6.614-6 11-12.354 5.847-20.5-5-4.167-21.335 17.5-18.5 8.712 3.16 9 12.5" style="opacity:1"/><path fill="#071c50" d="M862.5 680.5q13.43.696 10.5 14-1.202 9.486-10.5 6.5-7.03-6.91-4-16.5 1.573-2.574 4-4" style="opacity:1"/><path fill="#e1e2e8" d="M991.5 697.5q.463 8.093-8 7-9.764.624-14-8-1.899-5.952 0-12a57 57 0 0 1 7-5.5 50 50 0 0 1 15 .5 9.86 9.86 0 0 1-1 6q-7.275-9.222-15.5-1-4.653 10.342 4.5 16.5 7.847 2.586 11.5-4.5.598.342.5 1" style="opacity:1"/><path fill="#e5e6ea" d="M1037.5 686.5q11.19-.243 6 9.5c-2.4.711-4.73.544-7-.5-1.44-3.268-1.1-6.268 1-9" style="opacity:1"/><path fill="#031b48" d="M1086.5 685.5c.74 3.384 2.08 3.718 4 1v10c-1.5-.943-2.83-.609-4 1a19.7 19.7 0 0 0-4 3.5c-7.99 1.683-12.32-1.484-13-9.5q-.69-13.072 12-10.5c1.58 1.758 3.25 3.258 5 4.5" style="opacity:1"/><path fill="#1b2c56" d="M1174.5 686.5c.88-.131 1.54.202 2 1 .67 1.667 1.33 3.333 2 5-1.55.952-3.21 1.285-5 1 .17-2.361.51-4.694 1-7" style="opacity:1"/><path fill="#041b4d" d="M1443.5 680.5q7.41-1.722 10.5 5c2.69 5.839 1.86 11.006-2.5 15.5q-6.135 1.84-10.5-2.5c-2.64-6.617-1.81-12.617 2.5-18" style="opacity:1"/><path fill="#bec3d0" d="M1488.5 697.5q-3.285-1.311-3-5 1.08.626 1.5 2 2.1-6.54 4.5-13c-.46-.798-1.12-1.131-2-1 .65-1.225 1.82-1.892 3.5-2 4.06.206 4.39 1.206 1 3-.58 5.907-2.41 11.24-5.5 16" style="opacity:1"/><path fill="#e0e2e7" d="M1317.5 679.5q8.715-1.485 18-1c.3 2.104-.03 4.104-1 6a7.44 7.44 0 0 1-2-3c-2.45-.973-5.11-1.306-8-1v9q2.685 1.213 6 1.5-3.315.287-6 1.5-3 12.259 9 8.5a11.4 11.4 0 0 1 2-2.5c1.13 1.574 1.3 3.241.5 5-6.11 1.309-12.28 1.309-18.5 0 .12-.607.46-.94 1-1q.93-.166 1.5-1 1.005-10 0-20c-.71-.881-1.54-1.547-2.5-2" style="opacity:1"/><path fill="#ebebee" d="M1356.5 686.5c7.13.206 8.79 3.373 5 9.5-4.05 1.414-6.38.081-7-4-.11-2.178.56-4.012 2-5.5" style="opacity:1"/><path fill="#e9eaed" d="M1466.5 678.5c4.01-.224 4.68.943 2 3.5a328 328 0 0 1 5 13.5 67 67 0 0 0 4-10.5q-.3-3.609-3-6 4.575-1.232 9 .5a9.2 9.2 0 0 0-2 2.5 66 66 0 0 0 4 10.5q-.285 3.689 3 5-.375 3.654-3 6a361 361 0 0 0-6.5-14 322 322 0 0 0-5.5 13q-1.23 1.329-3 1a166 166 0 0 0-6.5-22 11.5 11.5 0 0 1-2.5-2c1.55-.952 3.21-1.285 5-1" style="opacity:1"/><path fill="#dee0e6" d="M561.5 659.5q-30.095 24.316-64 43.5-27.099 13.654-57 19.5v-4a199 199 0 0 0 27-6.5q48.769-18.573 88-52.5a877 877 0 0 0 19.5-18q1 1 0 2a27.8 27.8 0 0 0-6 8 84 84 0 0 0-7.5 8" style="opacity:1"/><path fill="#e2e3e8" d="M728.5 689.5h74v4h-74z" style="opacity:1"/><path fill="#1d2e59" d="M1280.5 685.5q3.12 3.276 3 8h-5c.67-2.667 1.33-5.333 2-8" style="opacity:1"/><path fill="#0b204a" d="M1300.5 701.5c-.11.617-.44 1.117-1 1.5a41 41 0 0 0 9 .5 4.95 4.95 0 0 1-.5 3c-2.91-.398-6.07-.898-9.5-1.5a9.3 9.3 0 0 1-1.5-2.5c-.67.752-1.5 1.086-2.5 1-2.5-3.603-4.17-7.603-5-12 .66.778 1.49 1.444 2.5 2 2.68-1.351 5.34-2.684 8-4 .5 3.986.67 7.986.5 12" style="opacity:1"/><path fill="#f2f2f2" d="M1573.5 689.5v3h-68v-3z" style="opacity:1"/><path fill="#6b7a96" d="M825.5 685.5a105 105 0 0 0-1 9q-1.973-4.69 1-9" style="opacity:1"/><path fill="#dddfe5" d="M1222.5 678.5c15.69-1.811 21.53 4.856 17.5 20q-8.22 9.806-19.5 3.5-7.065-6.21-4.5-15.5c2-2.831 4.17-5.497 6.5-8" style="opacity:1"/><path fill="#091e4c" d="M904.5 703.5a24.3 24.3 0 0 1-5.5-3q-4.185.294-8.5 2-.925-.166-1.5-1a64.2 64.2 0 0 1 0-16 388 388 0 0 1 15.5 18" style="opacity:1"/><path fill="#e9e9ed" d="M933.5 694.5q.09.814 1 1 1.968-7.227 0-14a31 31 0 0 0-2-2l4-1q2.75.128 4 2-1.487-.257-2 1-.522 11.335-3 22-1.46-2.459-4-4a224 224 0 0 0-11.5-14 64.2 64.2 0 0 0 0 16q1.006 1.128 2.5 1v1q-4.328.46-8-1 0-1 1-1 1.731-9.73.5-20-1.006-1.129-2.5-1 .978-1.838 3.5-2l3.5.5a281 281 0 0 1 13 15.5" style="opacity:1"/><path fill="#051c52" d="M931.5 699.5a82 82 0 0 0-7.5 4q-.575-.834-1.5-1-1.494.128-2.5-1a64.2 64.2 0 0 1 0-16 224 224 0 0 1 11.5 14" style="opacity:1"/><path fill="#73859e" d="M934.5 681.5q1.968 6.773 0 14-.91-.186-1-1 1.477-6.202 1-13" style="opacity:1"/><path fill="#031b4b" d="M1225.5 680.5q7.59-1.175 10.5 6a30.4 30.4 0 0 1 0 11c-4.76 5.312-9.43 5.312-14 0-2.84-6.687-1.67-12.354 3.5-17" style="opacity:1"/><path fill="#dfe1e7" d="M1262.5 680.5q2.91 7.173-3 12 1.53 2.102 3 4 1.935 4.43 6 7c-2.33 1.333-4.67 1.333-7 0a78.5 78.5 0 0 1-6.5-10c-1.01-.837-2.18-1.17-3.5-1q-.975 6.16 3 10.5c-3.33.667-6.67.667-10 0a9.4 9.4 0 0 0 2.5-1.5q1.005-10 0-20a4.5 4.5 0 0 1-1.5-2c5.85-1.51 11.52-1.177 17 1" style="opacity:1"/><path fill="#011a45" d="M1256.5 681.5q.93.166 1.5 1c1.82 5.329-.01 7.996-5.5 8v-9z" style="opacity:1"/><path fill="#6a7c97" d="M1256.5 681.5h-4v9c-.98-3.125-1.31-6.458-1-10 1.91-.284 3.58.049 5 1" style="opacity:1"/><path fill="#c2c5d4" d="M1324.5 692.5q2.685-1.213 6-1.5-3.315-.287-6-1.5h1c2.66.338 4.99-.329 7-2q1.995 3.5 0 7c-2.37-1.723-5.03-2.39-8-2" style="opacity:1"/><path fill="#102255" d="M1198.5 691.5q11.28-.165 6 9.5a18.4 18.4 0 0 1-6 .5z" style="opacity:1"/><path fill="#dcdee5" d="M1389.5 678.5h15c.31 2.424-.03 4.757-1 7-6.31-7.301-11.48-6.635-15.5 2-1.59 9.902 2.57 14.569 12.5 14v-8c-.12-1.343 2.21-1.51 7-.5q-2.295 4.361-3 9.5c-7.83 3.603-14.66 2.269-20.5-4-3.11-8.15-1.28-14.816 5.5-20" style="opacity:1"/><path fill="#a1a7c0" d="M1573.5 689.5c.93 1.068 1.27 2.401 1 4q-34.755.497-69-1h68z" style="opacity:1"/><path fill="#10234f" d="M1433.5 703.5q-3.51 2.317-7.5 1-7.425 1.935-15 3-5.73-6.026 1.5-9c.2 1.89-.46 3.39-2 4.5q4.5 1 9 0c-1.22-1.525-1.89-3.359-2-5.5.33-1.667.67-3.333 1-5 2.78 3.372 5.44 6.872 8 10.5 2.31.497 4.64.663 7 .5" style="opacity:1"/><path fill="#dddfe6" d="M1152.5 680.5c-1.96 6.587-2.63 13.587-2 21 2.69.164 5.35-.003 8-.5a7 7 0 0 0 2.5-3.5c.46.594.63 1.261.5 2v2c-2.9 1.237-6.07 1.903-9.5 2-3.02-.002-5.85-.336-8.5-1q.93-.166 1.5-1 1.005-10 0-20a4.5 4.5 0 0 1-1.5-2l4.5-1q2.985.103 4.5 2" style="opacity:1"/><path fill="#081e4b" d="M306.5 700.5a296 296 0 0 0 35 16q-1.5.5-2 2a275 275 0 0 0-22-7.5 49.2 49.2 0 0 0-14 0 187 187 0 0 1-13 3.5l1.5-3h4a6.55 6.55 0 0 0 3-3q1.461 3.567 2-1 1-2 2 0a8.4 8.4 0 0 0 .5-4q4.491.531 3-3M326.5 688.5q2.2 1.27 2.5 4l3-2a7.3 7.3 0 0 0 2 3q.684 1.866-1.5 2.5 3.567 1.461-1 2 1.9.463 3.5 1.5 1.334-2.083 1.5.5a11.3 11.3 0 0 1-2 4l1 3-2 1q3.71.33 5 3.5a306 306 0 0 1-26-11q1.184-.425 2-1.5-2-1.5 0-3-1.884-.625-2-2.5l20 10 1-1q-6.207-5.69-7-14" style="opacity:1"/><path fill="#d9dce3" d="M1104.5 704.5a19.9 19.9 0 0 1-9-2.5c-1.33-2.191-3-4.024-5-5.5v-10c.9-.79 1.57-1.79 2-3 8.16-6.926 15.99-6.592 23.5 1 3.55 10.941-.28 17.607-11.5 20" style="opacity:1"/><path fill="#061c50" d="M1100.5 680.5q8.265-2.092 10.5 6a30.4 30.4 0 0 1 0 11c-5.09 6.92-9.76 6.586-14-1-1.48-6.049-.31-11.382 3.5-16" style="opacity:1"/><path fill="#5f718e" d="M883.5 702.5q3.672 1.46 8 1-4.18 1.465-9 1-.258-1.487 1-2" style="opacity:1"/><path fill="#6f819b" d="M914.5 702.5q3.672 1.46 8 1-2.648 1.442-6 1-1.762.329-3-1 .186-.91 1-1" style="opacity:1"/><path fill="#6f809b" d="M1139.5 701.5v3h-19c-.17-.992.16-1.658 1-2 2.65.664 5.48.998 8.5 1 3.43-.097 6.6-.763 9.5-2M1161.5 701.5v3c-6.37.33-12.7-.004-19-1 .12-.607.46-.94 1-1 2.65.664 5.48.998 8.5 1 3.43-.097 6.6-.763 9.5-2" style="opacity:1"/><path fill="#697c97" d="M1164.5 702.5c2.11.968 4.44 1.302 7 1-2.52 1.3-5.19 1.3-8 0 .12-.607.46-.94 1-1" style="opacity:1"/><path fill="#647692" d="M1192.5 702.5c4.47.986 9.14 1.319 14 1q-7.275 1.971-15 0c.12-.607.46-.94 1-1" style="opacity:1"/><path fill="#6d7f99" d="M1271.5 701.5c-.11.617-.44 1.117-1 1.5q2.955.743 6 .5c-2.11.968-4.44 1.302-7 1-.21-1.679.45-2.679 2-3" style="opacity:1"/><path fill="#f3f3f4" d="M339.5 718.5q-31.71 30.059-72 12.5 10.595-9.771 23-16.5a187 187 0 0 0 13-3.5 49.2 49.2 0 0 1 14 0 275 275 0 0 1 22 7.5M489.5 710.5q21.659-2.399 39 10.5l12 10q-29.602 13.866-58-2a149 149 0 0 1-13-10 261 261 0 0 1 20-8.5" style="opacity:1"/><path fill="#f2f2f4" d="M397.5 713.5q26.508.007 17.5 25-16.735 14.037-27-5-2.984-13.743 9.5-20" style="opacity:1"/></svg>