<?xml version="1.0" encoding="UTF-8"?>
<svg version="1.1" xmlns="http://www.w3.org/2000/svg" width="474" height="474">
<path d="M0 0 C156.42 0 312.84 0 474 0 C474 156.42 474 312.84 474 474 C317.58 474 161.16 474 0 474 C0 317.58 0 161.16 0 0 Z " fill="#FEFEFE" transform="translate(0,0)"/>
<path d="M0 0 C17.42870105 -0.30421351 34.85656929 -0.53317878 52.28732109 -0.67355824 C60.38157985 -0.74048395 68.47418553 -0.83165173 76.56738281 -0.98071289 C83.62482211 -1.11063497 90.68106413 -1.19423534 97.7396661 -1.22315043 C101.47503603 -1.24004572 105.20698232 -1.2794838 108.94124985 -1.37449074 C133.49493219 -1.9753529 133.49493219 -1.9753529 138.96696472 2.79701233 C141.66284687 5.87228238 143.31445019 9.28117589 145 13 C146.27082806 14.77249936 147.57781593 16.52048723 148.94140625 18.22265625 C150.14927222 19.83531264 151.35630512 21.44859333 152.5625 23.0625 C153.20743408 23.92391602 153.85236816 24.78533203 154.5168457 25.67285156 C155.78336029 27.36450662 157.04957029 29.05638977 158.31542969 30.74853516 C161.12850829 34.50827586 163.94739204 38.26365312 166.765625 42.01953125 C168.46515815 44.28656586 170.16285668 46.55492991 171.859375 48.82421875 C176.53734814 55.07749653 181.22773367 61.31826817 186 67.5 C192.59070711 76.03724018 199.04169243 84.67984381 205.48046875 93.33203125 C208.95674788 97.99299759 212.46344437 102.6076785 216.125 107.125 C219.50184481 111.2920265 222.56740261 115.61326761 225.5546875 120.06640625 C226.86325641 122.11857 226.86325641 122.11857 229 123 C229.30744141 122.21302734 229.30744141 122.21302734 229.62109375 121.41015625 C231.60510055 117.94235966 234.30509077 115.3074406 237.0625 112.4375 C241.01619785 108.25864975 244.85237363 104.06758332 248.4375 99.5625 C252.08830672 94.99731074 255.98642933 90.74303898 260 86.5 C264.82988506 81.39338944 269.39474082 76.18165115 273.78515625 70.6875 C277.1817594 66.56604856 280.82148987 62.67902949 284.44921875 58.76171875 C288.61743704 54.2488086 292.63529043 49.61641538 296.6015625 44.92578125 C303.15660222 37.19317626 309.93145991 29.72096875 316.875 22.3359375 C319.22254627 19.83716041 321.54492157 17.32202183 323.8125 14.75 C324.53742393 13.93798882 324.53742393 13.93798882 325.2769928 13.10957336 C327.09763767 10.96338097 327.09763767 10.96338097 328.74925232 8.26530457 C331.75264293 3.87548768 334.07569701 0.56221823 339.31521606 -0.96859741 C343.27070964 -1.27030292 347.14176794 -1.24085604 351.09765625 -1.07421875 C352.54204848 -1.05366367 353.98651819 -1.03802384 355.43101501 -1.02705383 C359.20605828 -0.98534573 362.9763339 -0.87759082 366.74951172 -0.75531006 C370.61034644 -0.64212166 374.47196351 -0.59240621 378.33398438 -0.53710938 C385.8914807 -0.4196601 393.44506876 -0.23232164 401 0 C399.12122416 4.00629253 396.51544201 7.1224371 393.625 10.4375 C393.09479248 11.05149658 392.56458496 11.66549316 392.01831055 12.2980957 C387.87785313 17.06398878 383.60676885 21.69846 379.29589844 26.30981445 C375.4049924 30.49643445 371.78961672 34.86311275 368.2109375 39.3203125 C365.09754203 43.09379181 361.77366485 46.65968095 358.4609375 50.2578125 C356.08960105 52.90015883 353.84747003 55.60694167 351.625 58.375 C347.23539419 63.81530933 342.53308803 68.91001783 337.76953125 74.01953125 C333.94585509 78.12152508 330.28009203 82.35053468 326.62255859 86.60058594 C324.99974471 88.48491287 323.37535372 90.36786338 321.75 92.25 C321.18837158 92.90049316 320.62674316 93.55098633 320.0480957 94.22119141 C316.51605104 98.29612161 312.91960214 102.2988227 309.25 106.25 C305.90472791 109.86520759 302.70583672 113.53235638 299.625 117.375 C295.57398276 122.41336194 291.22776443 127.1030476 286.79956055 131.8059082 C282.76666767 136.1122575 279.01713565 140.57986606 275.33984375 145.1953125 C272.03495557 149.15676444 268.49295212 152.88872459 264.89624023 156.58618164 C262.97041433 158.61046038 261.2402176 160.56115725 259.89453125 163.01953125 C260.07313674 166.37334541 262.10114352 168.20108696 264.1875 170.75 C265.1184906 171.90911081 266.04811823 173.06931734 266.9765625 174.23046875 C267.4705957 174.84196777 267.96462891 175.4534668 268.47363281 176.08349609 C271.07803155 179.35357448 273.56567235 182.71002918 276.0625 186.0625 C277.08185839 187.42460855 278.10138732 188.78658949 279.12109375 190.1484375 C280.49667508 191.98829455 281.87186103 193.82844536 283.24658203 195.66894531 C289.93492355 204.6222854 296.731555 213.4886973 303.57421875 222.32421875 C308.14632636 228.23603588 312.63361738 234.19718071 317.0078125 240.2578125 C319.1246168 243.17153136 321.27542514 246.05722726 323.4375 248.9375 C324.17742187 249.92363281 324.91734375 250.90976562 325.6796875 251.92578125 C327.30218624 254.0754555 328.93150267 256.21834711 330.5703125 258.35546875 C330.98740479 258.90275635 331.40449707 259.45004395 331.83422852 260.01391602 C333.0020305 261.54568411 334.17471252 263.0737281 335.34765625 264.6015625 C337 267 337 267 337 269 C337.66 269 338.32 269 339 269 C340.83565795 271.23297317 342.55202611 273.47734265 344.25 275.8125 C344.77795166 276.52736572 345.30590332 277.24223145 345.84985352 277.97875977 C347.57292573 280.31456947 349.28685463 282.65690238 351 285 C353.3104501 288.14734211 355.62381224 291.29253751 357.9375 294.4375 C358.52072021 295.23140137 359.10394043 296.02530273 359.70483398 296.84326172 C364.73247857 303.6728773 369.8718112 310.4124638 375.0390625 317.13671875 C377.61412542 320.48923676 380.15749837 323.86334869 382.6875 327.25 C385.7585574 331.35971484 388.86547115 335.43872003 392 339.5 C396.29474097 345.06646469 400.52842579 350.6762053 404.73583984 356.30908203 C407.21552717 359.62586736 409.70219958 362.93741992 412.1875 366.25 C413.16018199 367.54685569 414.13283885 368.84373024 415.10546875 370.140625 C415.57645996 370.76646484 416.04745117 371.39230469 416.53271484 372.03710938 C417.57252043 373.4281305 418.60320507 374.82599099 419.62744141 376.22851562 C420.15901855 376.95232422 420.6905957 377.67613281 421.23828125 378.421875 C421.71950439 379.0828418 422.20072754 379.74380859 422.6965332 380.42480469 C423.93280549 382.13472858 423.93280549 382.13472858 426 383 C426 383.99 426 384.98 426 386 C408.96252614 386.32763912 391.92604055 386.57420225 374.88613319 386.72537041 C366.97330803 386.79744046 359.06244444 386.89560942 351.15087891 387.05615234 C344.25165064 387.1960855 337.35384297 387.28610249 330.45323503 387.31723893 C326.80142063 387.33543257 323.15366834 387.37788191 319.50316238 387.48022079 C297.31457258 388.07861841 297.31457258 388.07861841 291.83074188 384.63962555 C287.99827425 380.98535644 286.09198171 376.79350351 284 372 C282.02123471 369.27922481 282.02123471 369.27922481 280 367 C270.47642874 354.95100888 261.08578021 342.81014711 251.88745117 330.51098633 C242.37394621 317.80474729 232.71377482 305.20840222 223.0234375 292.63671875 C220.86209796 289.82030139 218.73273013 286.98177605 216.609375 284.13671875 C214.50847664 281.34741923 212.38025378 278.5793907 210.25 275.8125 C209.82783203 275.26416504 209.40566406 274.71583008 208.97070312 274.15087891 C206.71696084 271.22525029 204.46067413 268.30159799 202.203125 265.37890625 C201.5239502 264.49851685 201.5239502 264.49851685 200.83105469 263.6003418 C199.96276577 262.47484697 199.09366289 261.3499795 198.22363281 260.22583008 C196.39830939 257.85896414 194.65911439 255.48867159 193 253 C189.57412119 253.56851868 188.18440979 254.519562 186 257.1875 C185.09894531 258.26451172 185.09894531 258.26451172 184.1796875 259.36328125 C183.46039063 260.23339844 182.74109375 261.10351562 182 262 C180.04987825 264.29871131 178.0872713 266.58665851 176.125 268.875 C175.60574951 269.48279297 175.08649902 270.09058594 174.55151367 270.71679688 C170.8334789 275.06021404 167.0242026 279.31024952 163.171875 283.53515625 C159.92130873 287.22419819 156.88391113 291.07904085 153.84765625 294.9453125 C153.23792969 295.62335938 152.62820312 296.30140625 152 297 C151.34 297 150.68 297 150 297 C149.76410156 297.55558594 149.52820313 298.11117188 149.28515625 298.68359375 C147.6872248 301.56375591 145.694995 303.66369076 143.4375 306.0625 C139.96608181 309.79595956 136.6408372 313.59216657 133.4375 317.5625 C129.79656151 322.07032861 126.00307283 326.3969001 122.10546875 330.68359375 C118.08059173 335.11170521 114.16250849 339.62998058 110.28515625 344.1875 C105.38424988 349.942656 100.45804862 355.64893918 95.3125 361.1875 C91.10764616 365.73116221 87.12885058 370.39773826 83.265625 375.234375 C82.51796875 376.14703125 81.7703125 377.0596875 81 378 C80.59456467 378.65756287 80.18912933 379.31512573 79.77140808 379.99261475 C77.21991132 383.66312911 75.31201822 385.70572579 70.85995483 386.70428467 C66.92442858 386.92588955 63.03353216 386.90091119 59.09765625 386.78125 C57.6503768 386.76630963 56.2030566 386.75493108 54.75572205 386.74694824 C50.9652633 386.71655227 47.17729783 386.63810892 43.38781738 386.54931641 C39.5134453 386.46714693 35.63866608 386.4308712 31.76367188 386.390625 C24.1746504 386.30509272 16.58767588 386.16875001 9 386 C10.31927424 383.28543264 11.61663817 381.08563006 13.6171875 378.8203125 C14.13563232 378.22831055 14.65407715 377.63630859 15.18823242 377.02636719 C15.74486572 376.39891602 16.30149902 375.77146484 16.875 375.125 C18.05642865 373.7790311 19.23740811 372.4326678 20.41796875 371.0859375 C21.01657715 370.40499023 21.61518555 369.72404297 22.23193359 369.02246094 C24.91259031 365.95610355 27.54822736 362.85195461 30.1875 359.75 C33.78277985 355.53466209 37.43761366 351.39223745 41.1875 347.3125 C44.39645044 343.81740111 47.46065837 340.2571616 50.4375 336.5625 C54.09506264 332.02763839 57.94617027 327.74463817 61.91162109 323.48291016 C65.7107841 319.37567101 69.23629346 315.08398898 72.74609375 310.7265625 C75.92830469 306.87702483 79.29802278 303.21293002 82.67578125 299.53515625 C85.84668689 296.07647094 88.92844458 292.54684446 92 289 C92.95437688 287.89969604 93.90880913 286.79944009 94.86328125 285.69921875 C97.08825699 283.13369244 99.31207083 280.56716445 101.53515625 278 C103.79148654 275.39454362 106.04925318 272.79034638 108.30859375 270.1875 C109.39328897 268.9375519 110.47792471 267.68755217 111.5625 266.4375 C112.09794434 265.82036133 112.63338867 265.20322266 113.18505859 264.56738281 C117.39832388 259.70602081 121.57829477 254.81676616 125.75537109 249.92431641 C128.68262923 246.50609717 131.65809681 243.14116832 134.6875 239.8125 C138.48810707 235.62978522 142.04224546 231.2862171 145.578125 226.87890625 C147.35549158 224.7661334 149.14056521 222.76635549 151.046875 220.77734375 C151.55814941 220.24093262 152.06942383 219.70452148 152.59619141 219.15185547 C153.59801135 218.11035949 154.61044134 217.07894326 155.63427734 216.05908203 C158.27063992 213.432706 158.27063992 213.432706 159.02734375 209.94140625 C157.73717474 207.50333021 156.19653474 205.50005611 154.4375 203.375 C151 199.21126761 151 199.21126761 151 197 C150.34 197 149.68 197 149 197 C147.40625 195.05078125 147.40625 195.05078125 145.5 192.3125 C142.37691511 187.90611114 139.18365928 183.58119447 135.875 179.3125 C133.22849695 175.89079375 130.58500662 172.46858233 128 169 C125.49349299 165.63932021 122.93726469 162.31821234 120.375 159 C116.54052813 154.03155322 112.7580943 149.02642858 109 144 C101.93123151 134.55174624 94.7448709 125.20245112 87.4375 115.9375 C83.3579197 110.76351902 79.37027332 105.53008611 75.43359375 100.24609375 C72.55199208 96.38825135 69.61787305 92.57084167 66.6875 88.75 C62.37915908 83.13157173 58.10891802 77.48719338 53.875 71.8125 C49.64128973 66.14163325 45.31883833 60.55088576 40.92871094 55.00048828 C37.35586876 50.47583271 33.88679469 45.88042669 30.44140625 41.2578125 C25.87892889 35.15025782 21.22171483 29.11377596 16.58251953 23.06445312 C15.09376569 21.12232069 13.6071772 19.17855105 12.12109375 17.234375 C11.2474918 16.0936765 10.37379953 14.95304716 9.5 13.8125 C8.37078125 12.33716797 8.37078125 12.33716797 7.21875 10.83203125 C5.59212557 8.75579408 3.93772203 6.75773017 2.21875 4.76171875 C0 2 0 2 0 0 Z " fill="#030303" transform="translate(24,44)"/>
<path d="M0 0 C5.3889158 -0.29855489 10.77294987 -0.51519082 16.16821289 -0.65917969 C17.99914421 -0.7192261 19.82950715 -0.80090323 21.65844727 -0.90527344 C36.81402168 -1.74793825 36.81402168 -1.74793825 42.03369141 2.42578125 C44.34169134 5.50766004 46.18106084 8.61062059 48 12 C49.10226511 13.51427908 50.23477069 15.00735828 51.40625 16.46875 C51.91760498 17.13551758 52.42895996 17.80228516 52.95581055 18.48925781 C53.46539307 19.15280273 53.97497559 19.81634766 54.5 20.5 C58.98251718 26.34806517 63.42518613 32.22261271 67.8359375 38.125 C70.13879053 41.18438598 72.47171701 44.21964122 74.8125 47.25 C81.14496268 55.45316482 87.3365714 63.76140825 93.54101562 72.06152344 C99.37127272 79.85865887 105.23146688 87.62811464 111.1796875 95.3359375 C122.04580978 109.43231247 132.76381595 123.64056087 143.41796875 137.89746094 C149.57182138 146.12929257 155.76498449 154.32942137 162 162.5 C166.7725444 168.75410622 171.53337427 175.01608689 176.25 181.3125 C176.72953125 181.95243896 177.2090625 182.59237793 177.703125 183.25170898 C180.13629116 186.50185366 182.56300001 189.75668727 184.984375 193.015625 C189.96518372 199.70616728 195.01102312 206.321425 200.25 212.8125 C204.21291592 217.72352106 208.02837915 222.69562873 211.703125 227.828125 C214.77372855 232.06848228 217.91749961 236.25215041 221.0625 240.4375 C221.70880371 241.29762695 222.35510742 242.15775391 223.02099609 243.04394531 C224.35271804 244.81586535 225.68458811 246.58767408 227.01660156 248.359375 C228.92798729 250.90412488 230.83582587 253.45148493 232.7421875 256 C239.18635237 264.61236671 245.66219796 273.19890702 252.1875 281.75 C254.15957547 284.33722487 256.13138884 286.92464915 258.10302734 289.51220703 C259.35741898 291.15728435 260.61293462 292.80150526 261.86962891 294.44482422 C263.58434735 296.68893127 265.29294512 298.93756093 267 301.1875 C267.51071045 301.85297852 268.0214209 302.51845703 268.54760742 303.20410156 C272 307.77171458 272 307.77171458 272 310 C241.04718253 312.52359126 241.04718253 312.52359126 233.27832031 308.63916016 C229.33554658 305.18124888 227.14397596 300.86456198 225.02734375 296.12890625 C223.43042496 292.81970192 221.19522675 290.13843969 218.875 287.3125 C218.05649667 286.25914294 217.2413553 285.20316442 216.4296875 284.14453125 C215.62789062 283.10683594 214.82609375 282.06914062 214 281 C211.91345356 278.29044462 209.82945176 275.57893277 207.74511719 272.86767578 C205.6897195 270.19469758 203.63193971 267.52365188 201.5703125 264.85546875 C197.06391217 259.02036229 192.60317574 253.15411385 188.1875 247.25 C176.75342957 231.94610631 176.75342957 231.94610631 164.9375 216.9375 C161.01483459 212.08165313 157.28863965 207.0866021 153.55566406 202.0847168 C150.46574879 197.94661017 147.3472375 193.83505164 144.1875 189.75 C141.25731188 185.96047787 138.35975255 182.15157843 135.5 178.30859375 C129.61441888 170.40032135 123.71459692 162.54070347 117.4375 154.9375 C112.15356727 148.53354173 107.20046062 141.93116403 102.31152344 135.22216797 C97.63135314 128.8132744 92.79917661 122.53713232 87.9074707 116.28881836 C83.91730194 111.18992405 80.00551556 106.04333049 76.13671875 100.8515625 C72.56028741 96.07862854 68.91039774 91.36227748 65.26611328 86.64111328 C62.75758946 83.38960979 60.25562832 80.13305397 57.75244141 76.87744141 C55.65874276 74.15489623 53.56346153 71.43359945 51.46484375 68.71484375 C46.69196504 62.52777876 41.9709598 56.30627542 37.29296875 50.046875 C34.05011017 45.73779546 30.75545967 41.46974882 27.45703125 37.203125 C25.13464891 34.1883937 22.8533794 31.1437313 20.57299805 28.09716797 C17.89845492 24.5313872 15.20153011 20.98285721 12.5 17.4375 C11.95730469 16.72142578 11.41460937 16.00535156 10.85546875 15.26757812 C7.73874579 11.18013358 4.5345117 7.24146983 1.08398438 3.42993164 C0 2 0 2 0 0 Z " fill="#FAFAFA" transform="translate(101,81)"/>
<path d="M0 0 C0 3.99759022 -1.78793431 5.75102851 -4 9 C-4 9.66 -4 10.32 -4 11 C-6.5 12.5 -6.5 12.5 -9 14 C-10.7041054 15.62836738 -12.38025441 17.28769752 -14 19 C-14.66 18.67 -15.32 18.34 -16 18 C-15.26394531 17.20335938 -14.52789062 16.40671875 -13.76953125 15.5859375 C-12.78378001 14.5156933 -11.79810712 13.44537693 -10.8125 12.375 C-10.32974609 11.85292969 -9.84699219 11.33085938 -9.34960938 10.79296875 C-6.11982129 7.28138707 -3.02821458 3.68700349 0 0 Z " fill="#DCDCDC" transform="translate(418,53)"/>
<path d="M0 0 C0.66 0.33 1.32 0.66 2 1 C0.55218207 4.44428265 -1.27694609 6.36130962 -4.125 8.75 C-5.21167969 9.67039063 -5.21167969 9.67039063 -6.3203125 10.609375 C-6.87460937 11.06828125 -7.42890625 11.5271875 -8 12 C-8.66 11.67 -9.32 11.34 -10 11 C-6.7 7.37 -3.4 3.74 0 0 Z " fill="#D6D6D6" transform="translate(339,143)"/>
<path d="M0 0 C0.66 0.99 1.32 1.98 2 3 C0.75482035 4.13033298 -0.49636652 5.25405036 -1.75 6.375 C-2.44609375 7.00148438 -3.1421875 7.62796875 -3.859375 8.2734375 C-5.84508688 9.87505183 -7.67954093 10.96520068 -10 12 C-9.61328125 11.55269531 -9.2265625 11.10539062 -8.828125 10.64453125 C-5.81609925 7.1478974 -2.85678969 3.62592537 0 0 Z " fill="#393939" transform="translate(330,78)"/>
<path d="M0 0 C0.33 1.32 0.66 2.64 1 4 C0.360625 4.433125 -0.27875 4.86625 -0.9375 5.3125 C-3.26746003 6.91239177 -3.26746003 6.91239177 -4 10 C-5.32 9.67 -6.64 9.34 -8 9 C-5.36 6.03 -2.72 3.06 0 0 Z " fill="#D0D0D0" transform="translate(292,196)"/>
<path d="M0 0 C0.33 0.66 0.66 1.32 1 2 C-0.13304992 5.39914975 -1.12518475 6.05254451 -4 8 C-4.33 7.34 -4.66 6.68 -5 6 C-3.35 4.02 -1.7 2.04 0 0 Z " fill="#D9D9D9" transform="translate(117,407)"/>
<path d="M0 0 C0.33 1.32 0.66 2.64 1 4 C-0.32 4.99 -1.64 5.98 -3 7 C-3.66 6.67 -4.32 6.34 -5 6 C-3.35 4.02 -1.7 2.04 0 0 Z " fill="#CBCBCB" transform="translate(191,322)"/>
</svg>
